{
  "source": "C:\\Users\\Peter\\Desktop\\stuff\\MIUN\\quantitative_research\\video_compression\\videos\\BVI-HD\\BVI-HD_CDVL_videos\\ORIG\\Hamster_1920x1080_60fps.mp4",
  "output": "C:\\Users\\Peter\\Desktop\\stuff\\MIUN\\quantitative_research\\video_compression\\compressed_videos\\BVI-HD\\hevc\\1.5\\Hamster_1920x1080_60fps_hevc.mp4",
  "codec": "hevc",
  "ok": "Input #0, mov,mp4,m4a,3gp,3g2,mj2, from 'C:\\Users\\Peter\\Desktop\\stuff\\MIUN\\quantitative_research\\video_compression\\videos\\BVI-HD\\BVI-HD_CDVL_videos\\ORIG\\Hamster_1920x1080_60fps.mp4':\n  Metadata:\n    major_brand     : isom\n    minor_version   : 512\n    compatible_brands: isomiso2avc1mp41\n    encoder         : Lavf54.28.101\n  Duration: 00:00:05.00, start: 0.000000, bitrate: 208485 kb/s\n  Stream #0:0[0x1](und): Video: h264 (High 4:4:4 Predictive) (avc1 / 0x31637661), yuv420p(progressive), 1920x1080, 208481 kb/s, 60 fps, 60 tbr, 60 tbn (default)\n    Metadata:\n      handler_name    : VideoHandler\n      vendor_id       : [0][0][0][0]\n[out#0/mp4 @ 000001dcf3eeac00] Codec AVOption b:a (set bitrate (in bits/s)) has not been used for any stream. The most likely reason is either wrong type (e.g. a video option with no video streams) or that it is a private option of some decoder which was not actually used for any stream.\nStream mapping:\n  Stream #0:0 -> #0:0 (h264 (native) -> hevc (libx265))\nPress [q] to stop, [?] for help\n[libx265 @ 000001dcf466a440] Unknown option: \"aq-mode.\nx265 [info]: HEVC encoder version 4.1+190-8f11c33ac\nx265 [info]: build info [Windows][GCC 15.1.0][64 bit] 10bit\nx265 [info]: using cpu capabilities: MMX2 SSE2Fast LZCNT SSSE3 SSE4.2 AVX FMA3 BMI2 AVX2\nx265 [info]: Main 10 profile, Level-4.1 (Main tier)\nx265 [info]: Thread pool created using 12 threads\nx265 [info]: Slices                              : 1\nx265 [info]: frame threads / pool features       : 3 / wpp(17 rows)\nx265 [info]: Coding QT: max CU size, min CU size : 64 / 8\nx265 [info]: Residual QT: max TU size, max depth : 32 / 1 inter / 1 intra\nx265 [info]: ME / range / subpel / merge         : star / 57 / 3 / 3\nx265 [info]: Keyframe min / max / scenecut / bias  : 25 / 250 / 40 / 5.00 \nx265 [info]: Lookahead / bframes / badapt        : 25 / 4 / 2\nx265 [info]: b-pyramid / weightp / weightb       : 1 / 1 / 0\nx265 [info]: References / ref-limit  cu / depth  : 4 / on / on\nx265 [info]: AQ: mode / str / qg-size / cu-tree  : 2 / 1.0 / 32 / 1\nx265 [info]: Rate Control / qCompress            : ABR-1500 kbps / 0.60\nx265 [info]: VBV/HRD buffer / max-rate / init    : 1500 / 1500 / 0.750\nx265 [info]: tools: rect limit-modes rd=4 psy-rd=2.00 rdoq=2 psy-rdoq=1.00\nx265 [info]: tools: rskip mode=1 signhide tmvp strong-intra-smoothing lslices=4\nx265 [info]: tools: deblock sao dhdr10-info\nOutput #0, mp4, to 'C:\\Users\\Peter\\Desktop\\stuff\\MIUN\\quantitative_research\\video_compression\\compressed_videos\\BVI-HD\\hevc\\1.5\\Hamster_1920x1080_60fps_hevc.mp4':\n  Metadata:\n    major_brand     : isom\n    minor_version   : 512\n    compatible_brands: isomiso2avc1mp41\n    encoder         : Lavf62.3.100\n  Stream #0:0(und): Video: hevc (hev1 / 0x31766568), yuv420p10le(tv, progressive), 1920x1080, q=2-31, 1500 kb/s, 60 fps, 15360 tbn (default)\n    Metadata:\n      encoder         : Lavc62.11.100 libx265\n      handler_name    : VideoHandler\n      vendor_id       : [0][0][0][0]\n    Side data:\n      cpb: bitrate max/min/avg: 1500000/0/1500000 buffer size: 1500000 vbv_delay: N/A\nframe=    0 fps=0.0 q=0.0 size=       0KiB time=N/A bitrate=N/A speed=N/A elapsed=0:00:01.04    \nframe=    0 fps=0.0 q=0.0 size=       0KiB time=N/A bitrate=N/A speed=N/A elapsed=0:00:01.57    \nframe=    0 fps=0.0 q=0.0 size=       0KiB time=N/A bitrate=N/A speed=N/A elapsed=0:00:02.10    \nframe=    0 fps=0.0 q=0.0 size=       0KiB time=N/A bitrate=N/A speed=N/A elapsed=0:00:02.61    \nframe=    0 fps=0.0 q=0.0 size=       0KiB time=N/A bitrate=N/A speed=N/A elapsed=0:00:03.13    \nframe=    0 fps=0.0 q=0.0 size=       0KiB time=N/A bitrate=N/A speed=N/A elapsed=0:00:03.65    \nframe=    0 fps=0.0 q=0.0 size=       0KiB time=N/A bitrate=N/A speed=N/A elapsed=0:00:04.18    \nframe=    0 fps=0.0 q=0.0 size=       0KiB time=N/A bitrate=N/A speed=N/A elapsed=0:00:04.72    \nframe=    0 fps=0.0 q=0.0 size=       0KiB time=N/A bitrate=N/A speed=N/A elapsed=0:00:05.25    \nframe=    0 fps=0.0 q=0.0 size=       0KiB time=N/A bitrate=N/A speed=N/A elapsed=0:00:05.77    \nframe=    0 fps=0.0 q=0.0 size=       0KiB time=N/A bitrate=N/A speed=N/A elapsed=0:00:06.29    \nframe=    2 fps=0.3 q=44.6 size=       0KiB time=00:00:00.00 bitrate=N/A speed=   0x elapsed=0:00:06.79    \nframe=    2 fps=0.3 q=44.6 size=       0KiB time=00:00:00.00 bitrate=N/A speed=   0x elapsed=0:00:07.32    \nframe=    3 fps=0.4 q=46.3 size=       0KiB time=00:00:00.01 bitrate=  21.1kbits/s speed=0.00212x elapsed=0:00:07.84    \nframe=    4 fps=0.5 q=46.7 size=       0KiB time=00:00:00.03 bitrate=  10.6kbits/s speed=0.00399x elapsed=0:00:08.36    \nframe=    4 fps=0.5 q=46.7 size=       0KiB time=00:00:00.03 bitrate=  10.6kbits/s speed=0.00375x elapsed=0:00:08.88    \nframe=    5 fps=0.5 q=44.3 size=       0KiB time=00:00:00.05 bitrate=   7.0kbits/s speed=0.00533x elapsed=0:00:09.38    \nframe=    6 fps=0.6 q=40.2 size=       0KiB time=00:00:00.06 bitrate=   5.3kbits/s speed=0.00673x elapsed=0:00:09.91    \nframe=    6 fps=0.6 q=40.2 size=       0KiB time=00:00:00.06 bitrate=   5.3kbits/s speed=0.00639x elapsed=0:00:10.43    \nframe=    7 fps=0.6 q=42.4 size=       0KiB time=00:00:00.08 bitrate=   4.2kbits/s speed=0.00761x elapsed=0:00:10.95    \nframe=    8 fps=0.7 q=41.9 size=       0KiB time=00:00:00.10 bitrate=   3.5kbits/s speed=0.00871x elapsed=0:00:11.47    \nframe=    9 fps=0.8 q=43.1 size=       0KiB time=00:00:00.11 bitrate=   3.0kbits/s speed=0.00973x elapsed=0:00:11.99    \nframe=   10 fps=0.8 q=44.0 size=       0KiB time=00:00:00.13 bitrate=   2.6kbits/s speed=0.0107x elapsed=0:00:12.50    \nframe=   10 fps=0.8 q=44.0 size=       0KiB time=00:00:00.13 bitrate=   2.6kbits/s speed=0.0102x elapsed=0:00:13.01    \nframe=   11 fps=0.8 q=38.0 size=       0KiB time=00:00:00.15 bitrate=   2.3kbits/s speed=0.0111x elapsed=0:00:13.54    \nframe=   12 fps=0.9 q=41.9 size=       0KiB time=00:00:00.16 bitrate=   2.1kbits/s speed=0.0118x elapsed=0:00:14.07    \nframe=   13 fps=0.9 q=43.9 size=       0KiB time=00:00:00.18 bitrate=   1.9kbits/s speed=0.0126x elapsed=0:00:14.58    \nframe=   14 fps=0.9 q=43.5 size=       0KiB time=00:00:00.20 bitrate=   1.8kbits/s speed=0.0132x elapsed=0:00:15.09    \nframe=   14 fps=0.9 q=43.5 size=       0KiB time=00:00:00.20 bitrate=   1.8kbits/s speed=0.0128x elapsed=0:00:15.61    \nframe=   15 fps=0.9 q=37.9 size=       0KiB time=00:00:00.21 bitrate=   1.6kbits/s speed=0.0134x elapsed=0:00:16.16    \nframe=   16 fps=1.0 q=39.0 size=       0KiB time=00:00:00.23 bitrate=   1.5kbits/s speed=0.014x elapsed=0:00:16.67    \nframe=   16 fps=0.9 q=39.0 size=       0KiB time=00:00:00.23 bitrate=   1.5kbits/s speed=0.0136x elapsed=0:00:17.19    \nframe=   18 fps=1.0 q=42.4 size=       0KiB time=00:00:00.26 bitrate=   1.3kbits/s speed=0.015x elapsed=0:00:17.74    \nframe=   18 fps=1.0 q=42.4 size=       0KiB time=00:00:00.26 bitrate=   1.3kbits/s speed=0.0146x elapsed=0:00:18.27    \nframe=   18 fps=1.0 q=42.4 size=       0KiB time=00:00:00.26 bitrate=   1.3kbits/s speed=0.0142x elapsed=0:00:18.79    \nframe=   19 fps=1.0 q=42.7 size=       0KiB time=00:00:00.28 bitrate=   1.2kbits/s speed=0.0147x elapsed=0:00:19.31    \nframe=   20 fps=1.0 q=37.8 size=       0KiB time=00:00:00.30 bitrate=   1.2kbits/s speed=0.0151x elapsed=0:00:19.83    \nframe=   21 fps=1.0 q=40.7 size=       0KiB time=00:00:00.31 bitrate=   1.1kbits/s speed=0.0156x elapsed=0:00:20.36    \nframe=   21 fps=1.0 q=40.7 size=       0KiB time=00:00:00.31 bitrate=   1.1kbits/s speed=0.0152x elapsed=0:00:20.89    \nframe=   22 fps=1.0 q=42.2 size=       0KiB time=00:00:00.33 bitrate=   1.1kbits/s speed=0.0156x elapsed=0:00:21.42    \nframe=   22 fps=1.0 q=42.2 size=       0KiB time=00:00:00.33 bitrate=   1.1kbits/s speed=0.0152x elapsed=0:00:21.94    \nframe=   23 fps=1.0 q=42.3 size=       0KiB time=00:00:00.35 bitrate=   1.0kbits/s speed=0.0156x elapsed=0:00:22.45    \nframe=   23 fps=1.0 q=42.3 size=       0KiB time=00:00:00.35 bitrate=   1.0kbits/s speed=0.0152x elapsed=0:00:22.97    \nframe=   23 fps=1.0 q=42.3 size=       0KiB time=00:00:00.35 bitrate=   1.0kbits/s speed=0.0149x elapsed=0:00:23.49    \nframe=   25 fps=1.0 q=39.9 size=       0KiB time=00:00:00.38 bitrate=   0.9kbits/s speed=0.016x elapsed=0:00:24.00    \nframe=   25 fps=1.0 q=39.9 size=       0KiB time=00:00:00.38 bitrate=   0.9kbits/s speed=0.0156x elapsed=0:00:24.54    \nframe=   25 fps=1.0 q=39.9 size=       0KiB time=00:00:00.38 bitrate=   0.9kbits/s speed=0.0153x elapsed=0:00:25.05    \nframe=   26 fps=1.0 q=41.8 size=       0KiB time=00:00:00.40 bitrate=   0.9kbits/s speed=0.0156x elapsed=0:00:25.56    \nframe=   26 fps=1.0 q=41.8 size=       0KiB time=00:00:00.40 bitrate=   0.9kbits/s speed=0.0153x elapsed=0:00:26.08    \nframe=   26 fps=1.0 q=41.8 size=       0KiB time=00:00:00.40 bitrate=   0.9kbits/s speed=0.015x elapsed=0:00:26.60    \nframe=   27 fps=1.0 q=41.8 size=       0KiB time=00:00:00.41 bitrate=   0.8kbits/s speed=0.0154x elapsed=0:00:27.14    \nframe=   27 fps=1.0 q=41.8 size=       0KiB time=00:00:00.41 bitrate=   0.8kbits/s speed=0.0151x elapsed=0:00:27.67    \nframe=   27 fps=1.0 q=41.8 size=       0KiB time=00:00:00.41 bitrate=   0.8kbits/s speed=0.0148x elapsed=0:00:28.19    \nframe=   28 fps=1.0 q=36.7 size=       0KiB time=00:00:00.43 bitrate=   0.8kbits/s speed=0.0151x elapsed=0:00:28.70    \nframe=   29 fps=1.0 q=39.8 size=       0KiB time=00:00:00.45 bitrate=   0.8kbits/s speed=0.0154x elapsed=0:00:29.22    \nframe=   29 fps=1.0 q=39.8 size=       0KiB time=00:00:00.45 bitrate=   0.8kbits/s speed=0.0151x elapsed=0:00:29.74    \nframe=   29 fps=1.0 q=39.8 size=       0KiB time=00:00:00.45 bitrate=   0.8kbits/s speed=0.0149x elapsed=0:00:30.25    \nframe=   29 fps=0.9 q=39.8 size=       0KiB time=00:00:00.45 bitrate=   0.8kbits/s speed=0.0146x elapsed=0:00:30.78    \nframe=   30 fps=1.0 q=41.9 size=       0KiB time=00:00:00.46 bitrate=   0.8kbits/s speed=0.0149x elapsed=0:00:31.31    \nframe=   30 fps=0.9 q=41.9 size=       0KiB time=00:00:00.46 bitrate=   0.8kbits/s speed=0.0147x elapsed=0:00:31.84    \nframe=   31 fps=1.0 q=42.0 size=       0KiB time=00:00:00.48 bitrate=   0.7kbits/s speed=0.0149x elapsed=0:00:32.37    \nframe=   32 fps=1.0 q=37.4 size=       0KiB time=00:00:00.50 bitrate=   0.7kbits/s speed=0.0152x elapsed=0:00:32.89    \nframe=   33 fps=1.0 q=40.1 size=       0KiB time=00:00:00.51 bitrate=   0.7kbits/s speed=0.0155x elapsed=0:00:33.42    \nframe=   33 fps=1.0 q=40.1 size=       0KiB time=00:00:00.51 bitrate=   0.7kbits/s speed=0.0152x elapsed=0:00:33.94    \nframe=   34 fps=1.0 q=42.2 size=       0KiB time=00:00:00.53 bitrate=   0.7kbits/s speed=0.0155x elapsed=0:00:34.47    \nframe=   34 fps=1.0 q=42.2 size=       0KiB time=00:00:00.53 bitrate=   0.7kbits/s speed=0.0152x elapsed=0:00:35.01    \nframe=   35 fps=1.0 q=42.3 size=       0KiB time=00:00:00.55 bitrate=   0.6kbits/s speed=0.0155x elapsed=0:00:35.54    \nframe=   36 fps=1.0 q=37.0 size=       0KiB time=00:00:00.56 bitrate=   0.6kbits/s speed=0.0157x elapsed=0:00:36.06    \nframe=   37 fps=1.0 q=40.3 size=       0KiB time=00:00:00.58 bitrate=   0.6kbits/s speed=0.0159x elapsed=0:00:36.59    \nframe=   37 fps=1.0 q=40.3 size=       0KiB time=00:00:00.58 bitrate=   0.6kbits/s speed=0.0157x elapsed=0:00:37.11    \nframe=   38 fps=1.0 q=42.3 size=       0KiB time=00:00:00.60 bitrate=   0.6kbits/s speed=0.0159x elapsed=0:00:37.62    \nframe=   38 fps=1.0 q=42.3 size=       0KiB time=00:00:00.60 bitrate=   0.6kbits/s speed=0.0157x elapsed=0:00:38.14    \nframe=   38 fps=1.0 q=42.3 size=       0KiB time=00:00:00.60 bitrate=   0.6kbits/s speed=0.0155x elapsed=0:00:38.67    \nframe=   39 fps=1.0 q=42.3 size=       0KiB time=00:00:00.61 bitrate=   0.6kbits/s speed=0.0157x elapsed=0:00:39.19    \nframe=   39 fps=1.0 q=42.3 size=       0KiB time=00:00:00.61 bitrate=   0.6kbits/s speed=0.0155x elapsed=0:00:39.72    \nframe=   41 fps=1.0 q=40.1 size=       0KiB time=00:00:00.65 bitrate=   0.5kbits/s speed=0.0161x elapsed=0:00:40.25    \nframe=   41 fps=1.0 q=40.1 size=       0KiB time=00:00:00.65 bitrate=   0.5kbits/s speed=0.0159x elapsed=0:00:40.77    \nframe=   41 fps=1.0 q=40.1 size=       0KiB time=00:00:00.65 bitrate=   0.5kbits/s speed=0.0157x elapsed=0:00:41.29    \nframe=   42 fps=1.0 q=42.2 size=       0KiB time=00:00:00.66 bitrate=   0.5kbits/s speed=0.0159x elapsed=0:00:41.82    \nframe=   43 fps=1.0 q=42.0 size=       0KiB time=00:00:00.68 bitrate=   0.5kbits/s speed=0.0161x elapsed=0:00:42.33    \nframe=   45 fps=1.1 q=40.8 size=       0KiB time=00:00:00.71 bitrate=   0.5kbits/s speed=0.0167x elapsed=0:00:42.85    \nframe=   45 fps=1.0 q=40.8 size=       0KiB time=00:00:00.71 bitrate=   0.5kbits/s speed=0.0165x elapsed=0:00:43.35    \nframe=   46 fps=1.0 q=41.5 size=       0KiB time=00:00:00.73 bitrate=   0.5kbits/s speed=0.0167x elapsed=0:00:43.88    \nframe=   47 fps=1.1 q=41.3 size=       0KiB time=00:00:00.75 bitrate=   0.5kbits/s speed=0.0169x elapsed=0:00:44.40    \nframe=   48 fps=1.1 q=41.6 size=       0KiB time=00:00:00.76 bitrate=   0.5kbits/s speed=0.0171x elapsed=0:00:44.92    \nframe=   48 fps=1.1 q=41.6 size=       0KiB time=00:00:00.76 bitrate=   0.5kbits/s speed=0.0169x elapsed=0:00:45.44    \nframe=   49 fps=1.1 q=37.3 size=       0KiB time=00:00:00.78 bitrate=   0.4kbits/s speed=0.017x elapsed=0:00:45.95    \nframe=   50 fps=1.1 q=40.1 size=       0KiB time=00:00:00.80 bitrate=   0.4kbits/s speed=0.0172x elapsed=0:00:46.47    \nframe=   51 fps=1.1 q=42.4 size=       0KiB time=00:00:00.81 bitrate=   0.4kbits/s speed=0.0174x elapsed=0:00:46.98    \nframe=   51 fps=1.1 q=42.4 size=       0KiB time=00:00:00.81 bitrate=   0.4kbits/s speed=0.0172x elapsed=0:00:47.53    \nframe=   51 fps=1.1 q=42.4 size=       0KiB time=00:00:00.81 bitrate=   0.4kbits/s speed=0.017x elapsed=0:00:48.07    \nframe=   51 fps=1.0 q=42.4 size=       0KiB time=00:00:00.81 bitrate=   0.4kbits/s speed=0.0168x elapsed=0:00:48.59    \nframe=   51 fps=1.0 q=42.4 size=       0KiB time=00:00:00.81 bitrate=   0.4kbits/s speed=0.0166x elapsed=0:00:49.11    \nframe=   51 fps=1.0 q=42.4 size=       0KiB time=00:00:00.81 bitrate=   0.4kbits/s speed=0.0164x elapsed=0:00:49.65    \nframe=   52 fps=1.0 q=42.3 size=       0KiB time=00:00:00.83 bitrate=   0.4kbits/s speed=0.0166x elapsed=0:00:50.23    \nframe=   52 fps=1.0 q=42.3 size=       0KiB time=00:00:00.83 bitrate=   0.4kbits/s speed=0.0164x elapsed=0:00:50.74    \nframe=   52 fps=1.0 q=42.3 size=       0KiB time=00:00:00.83 bitrate=   0.4kbits/s speed=0.0162x elapsed=0:00:51.30    \nframe=   52 fps=1.0 q=42.3 size=       0KiB time=00:00:00.83 bitrate=   0.4kbits/s speed=0.0161x elapsed=0:00:51.82    \nframe=   52 fps=1.0 q=42.3 size=       0KiB time=00:00:00.83 bitrate=   0.4kbits/s speed=0.0159x elapsed=0:00:52.35    \nframe=   53 fps=1.0 q=38.2 size=       0KiB time=00:00:00.85 bitrate=   0.4kbits/s speed=0.0161x elapsed=0:00:52.89    \nframe=   53 fps=1.0 q=38.2 size=       0KiB time=00:00:00.85 bitrate=   0.4kbits/s speed=0.0159x elapsed=0:00:53.47    \nframe=   54 fps=1.0 q=40.3 size=       0KiB time=00:00:00.86 bitrate=   0.4kbits/s speed=0.016x elapsed=0:00:54.04    \nframe=   54 fps=1.0 q=40.3 size=       0KiB time=00:00:00.86 bitrate=   0.4kbits/s speed=0.0159x elapsed=0:00:54.62    \nframe=   55 fps=1.0 q=42.6 size=       0KiB time=00:00:00.88 bitrate=   0.4kbits/s speed=0.016x elapsed=0:00:55.13    \nframe=   55 fps=1.0 q=42.6 size=       0KiB time=00:00:00.88 bitrate=   0.4kbits/s speed=0.0159x elapsed=0:00:55.63    \nframe=   56 fps=1.0 q=42.2 size=       0KiB time=00:00:00.90 bitrate=   0.4kbits/s speed=0.016x elapsed=0:00:56.15    \nframe=   56 fps=1.0 q=42.2 size=       0KiB time=00:00:00.90 bitrate=   0.4kbits/s speed=0.0159x elapsed=0:00:56.67    \nframe=   57 fps=1.0 q=37.6 size=       0KiB time=00:00:00.91 bitrate=   0.4kbits/s speed=0.016x elapsed=0:00:57.20    \nframe=   57 fps=1.0 q=37.6 size=       0KiB time=00:00:00.91 bitrate=   0.4kbits/s speed=0.0159x elapsed=0:00:57.72    \nframe=   58 fps=1.0 q=40.4 size=       0KiB time=00:00:00.93 bitrate=   0.4kbits/s speed=0.016x elapsed=0:00:58.24    \nframe=   59 fps=1.0 q=42.3 size=       0KiB time=00:00:00.95 bitrate=   0.4kbits/s speed=0.0162x elapsed=0:00:58.76    \nframe=   59 fps=1.0 q=42.3 size=       0KiB time=00:00:00.95 bitrate=   0.4kbits/s speed=0.016x elapsed=0:00:59.29    \nframe=   60 fps=1.0 q=37.5 size=       0KiB time=00:00:00.96 bitrate=   0.4kbits/s speed=0.0162x elapsed=0:00:59.82    \nframe=   61 fps=1.0 q=40.8 size=       0KiB time=00:00:00.98 bitrate=   0.4kbits/s speed=0.0163x elapsed=0:01:00.34    \nframe=   62 fps=1.0 q=42.3 size=       0KiB time=00:00:01.00 bitrate=   0.4kbits/s speed=0.0164x elapsed=0:01:00.87    \nframe=   62 fps=1.0 q=42.3 size=       0KiB time=00:00:01.00 bitrate=   0.4kbits/s speed=0.0163x elapsed=0:01:01.38    \nframe=   62 fps=1.0 q=42.3 size=       0KiB time=00:00:01.00 bitrate=   0.4kbits/s speed=0.0162x elapsed=0:01:01.90    \nframe=   63 fps=1.0 q=42.2 size=       0KiB time=00:00:01.01 bitrate=   0.3kbits/s speed=0.0163x elapsed=0:01:02.43    \nframe=   63 fps=1.0 q=42.2 size=       0KiB time=00:00:01.01 bitrate=   0.3kbits/s speed=0.0161x elapsed=0:01:02.95    \nframe=   64 fps=1.0 q=42.3 size=       0KiB time=00:00:01.03 bitrate=   0.3kbits/s speed=0.0163x elapsed=0:01:03.47    \nframe=   65 fps=1.0 q=37.6 size=       0KiB time=00:00:01.05 bitrate=   0.3kbits/s speed=0.0164x elapsed=0:01:03.99    \nframe=   65 fps=1.0 q=37.6 size=       0KiB time=00:00:01.05 bitrate=   0.3kbits/s speed=0.0163x elapsed=0:01:04.49    \nframe=   66 fps=1.0 q=40.9 size=       0KiB time=00:00:01.06 bitrate=   0.3kbits/s speed=0.0164x elapsed=0:01:05.03    \nframe=   67 fps=1.0 q=42.1 size=       0KiB time=00:00:01.08 bitrate=   0.3kbits/s speed=0.0165x elapsed=0:01:05.55    \nframe=   68 fps=1.0 q=42.2 size=       0KiB time=00:00:01.10 bitrate=   0.3kbits/s speed=0.0166x elapsed=0:01:06.08    \nframe=   69 fps=1.0 q=42.1 size=       0KiB time=00:00:01.11 bitrate=   0.3kbits/s speed=0.0168x elapsed=0:01:06.63    \nframe=   69 fps=1.0 q=42.1 size=       0KiB time=00:00:01.11 bitrate=   0.3kbits/s speed=0.0166x elapsed=0:01:07.15    \nframe=   69 fps=1.0 q=42.1 size=       0KiB time=00:00:01.11 bitrate=   0.3kbits/s speed=0.0165x elapsed=0:01:07.72    \nframe=   69 fps=1.0 q=42.1 size=       0KiB time=00:00:01.11 bitrate=   0.3kbits/s speed=0.0164x elapsed=0:01:08.24    \nframe=   70 fps=1.0 q=37.7 size=       0KiB time=00:00:01.13 bitrate=   0.3kbits/s speed=0.0165x elapsed=0:01:08.74    \nframe=   70 fps=1.0 q=37.7 size=       0KiB time=00:00:01.13 bitrate=   0.3kbits/s speed=0.0164x elapsed=0:01:09.27    \nframe=   71 fps=1.0 q=42.1 size=       0KiB time=00:00:01.15 bitrate=   0.3kbits/s speed=0.0165x elapsed=0:01:09.78    \nframe=   71 fps=1.0 q=42.1 size=       0KiB time=00:00:01.15 bitrate=   0.3kbits/s speed=0.0163x elapsed=0:01:10.34    \nframe=   71 fps=1.0 q=42.1 size=       0KiB time=00:00:01.15 bitrate=   0.3kbits/s speed=0.0162x elapsed=0:01:10.88    \nframe=   72 fps=1.0 q=38.1 size=       0KiB time=00:00:01.16 bitrate=   0.3kbits/s speed=0.0163x elapsed=0:01:11.40    \nframe=   72 fps=1.0 q=38.1 size=       0KiB time=00:00:01.16 bitrate=   0.3kbits/s speed=0.0162x elapsed=0:01:11.92    \nframe=   73 fps=1.0 q=40.2 size=       0KiB time=00:00:01.18 bitrate=   0.3kbits/s speed=0.0163x elapsed=0:01:12.45    \nframe=   73 fps=1.0 q=40.2 size=       0KiB time=00:00:01.18 bitrate=   0.3kbits/s speed=0.0162x elapsed=0:01:12.97    \nframe=   74 fps=1.0 q=42.2 size=       0KiB time=00:00:01.20 bitrate=   0.3kbits/s speed=0.0163x elapsed=0:01:13.49    \nframe=   74 fps=1.0 q=42.2 size=       0KiB time=00:00:01.20 bitrate=   0.3kbits/s speed=0.0162x elapsed=0:01:13.99    \nframe=   75 fps=1.0 q=42.3 size=       0KiB time=00:00:01.21 bitrate=   0.3kbits/s speed=0.0163x elapsed=0:01:14.52    \nframe=   76 fps=1.0 q=37.9 size=       0KiB time=00:00:01.23 bitrate=   0.3kbits/s speed=0.0164x elapsed=0:01:15.05    \nframe=   76 fps=1.0 q=37.9 size=       0KiB time=00:00:01.23 bitrate=   0.3kbits/s speed=0.0163x elapsed=0:01:15.56    \nframe=   77 fps=1.0 q=40.3 size=       0KiB time=00:00:01.25 bitrate=   0.3kbits/s speed=0.0164x elapsed=0:01:16.08    \nframe=   77 fps=1.0 q=40.3 size=       0KiB time=00:00:01.25 bitrate=   0.3kbits/s speed=0.0163x elapsed=0:01:16.59    \nframe=   78 fps=1.0 q=42.2 size=       0KiB time=00:00:01.26 bitrate=   0.3kbits/s speed=0.0164x elapsed=0:01:17.12    \nframe=   79 fps=1.0 q=42.3 size=       0KiB time=00:00:01.28 bitrate=   0.3kbits/s speed=0.0165x elapsed=0:01:17.65    \nframe=   79 fps=1.0 q=42.3 size=       0KiB time=00:00:01.28 bitrate=   0.3kbits/s speed=0.0164x elapsed=0:01:18.18    \nframe=   80 fps=1.0 q=37.5 size=       0KiB time=00:00:01.30 bitrate=   0.3kbits/s speed=0.0165x elapsed=0:01:18.71    \nframe=   80 fps=1.0 q=37.5 size=       0KiB time=00:00:01.30 bitrate=   0.3kbits/s speed=0.0164x elapsed=0:01:19.23    \nframe=   82 fps=1.0 q=42.4 size=       0KiB time=00:00:01.33 bitrate=   0.3kbits/s speed=0.0167x elapsed=0:01:19.75    \nframe=   82 fps=1.0 q=42.4 size=       0KiB time=00:00:01.33 bitrate=   0.3kbits/s speed=0.0166x elapsed=0:01:20.26    \nframe=   83 fps=1.0 q=42.4 size=       0KiB time=00:00:01.35 bitrate=   0.3kbits/s speed=0.0167x elapsed=0:01:20.78    \nframe=   84 fps=1.0 q=42.7 size=       0KiB time=00:00:01.36 bitrate=   0.3kbits/s speed=0.0168x elapsed=0:01:21.31    \nframe=   85 fps=1.0 q=37.4 size=       0KiB time=00:00:01.38 bitrate=   0.3kbits/s speed=0.0169x elapsed=0:01:21.84    \nframe=   85 fps=1.0 q=37.4 size=       0KiB time=00:00:01.38 bitrate=   0.3kbits/s speed=0.0168x elapsed=0:01:22.38    \nframe=   85 fps=1.0 q=37.4 size=       0KiB time=00:00:01.38 bitrate=   0.3kbits/s speed=0.0167x elapsed=0:01:22.90    \nframe=   86 fps=1.0 q=40.6 size=     256KiB time=00:00:01.40 bitrate=1498.2kbits/s speed=0.0168x elapsed=0:01:23.42    \nframe=   86 fps=1.0 q=40.6 size=     256KiB time=00:00:01.40 bitrate=1498.2kbits/s speed=0.0167x elapsed=0:01:23.94    \nframe=   86 fps=1.0 q=40.6 size=     256KiB time=00:00:01.40 bitrate=1498.2kbits/s speed=0.0166x elapsed=0:01:24.46    \nframe=   87 fps=1.0 q=42.6 size=     256KiB time=00:00:01.41 bitrate=1480.6kbits/s speed=0.0167x elapsed=0:01:24.97    \nframe=   87 fps=1.0 q=42.6 size=     256KiB time=00:00:01.41 bitrate=1480.6kbits/s speed=0.0166x elapsed=0:01:25.50    \nframe=   88 fps=1.0 q=43.4 size=     256KiB time=00:00:01.43 bitrate=1463.4kbits/s speed=0.0167x elapsed=0:01:26.03    \nframe=   89 fps=1.0 q=38.5 size=     256KiB time=00:00:01.45 bitrate=1446.6kbits/s speed=0.0168x elapsed=0:01:26.56    \nframe=   89 fps=1.0 q=38.5 size=     256KiB time=00:00:01.45 bitrate=1446.6kbits/s speed=0.0167x elapsed=0:01:27.08    \nframe=   90 fps=1.0 q=41.4 size=     256KiB time=00:00:01.46 bitrate=1430.1kbits/s speed=0.0167x elapsed=0:01:27.60    \nframe=   90 fps=1.0 q=41.4 size=     256KiB time=00:00:01.46 bitrate=1430.1kbits/s speed=0.0166x elapsed=0:01:28.11    \nframe=   90 fps=1.0 q=41.4 size=     256KiB time=00:00:01.46 bitrate=1430.1kbits/s speed=0.0165x elapsed=0:01:28.64    \nframe=   90 fps=1.0 q=41.4 size=     256KiB time=00:00:01.46 bitrate=1430.1kbits/s speed=0.0164x elapsed=0:01:29.16    \nframe=   91 fps=1.0 q=43.3 size=     256KiB time=00:00:01.48 bitrate=1414.0kbits/s speed=0.0165x elapsed=0:01:29.66    \nframe=   92 fps=1.0 q=43.6 size=     256KiB time=00:00:01.50 bitrate=1398.3kbits/s speed=0.0166x elapsed=0:01:30.19    \nframe=   92 fps=1.0 q=43.6 size=     256KiB time=00:00:01.50 bitrate=1398.3kbits/s speed=0.0165x elapsed=0:01:30.72    \nframe=   93 fps=1.0 q=38.5 size=     256KiB time=00:00:01.51 bitrate=1383.0kbits/s speed=0.0166x elapsed=0:01:31.24    \nframe=   93 fps=1.0 q=38.5 size=     256KiB time=00:00:01.51 bitrate=1383.0kbits/s speed=0.0165x elapsed=0:01:31.77    \nframe=   94 fps=1.0 q=41.5 size=     256KiB time=00:00:01.53 bitrate=1367.9kbits/s speed=0.0166x elapsed=0:01:32.29    \nframe=   94 fps=1.0 q=41.5 size=     256KiB time=00:00:01.53 bitrate=1367.9kbits/s speed=0.0165x elapsed=0:01:32.81    \nframe=   95 fps=1.0 q=43.6 size=     256KiB time=00:00:01.55 bitrate=1353.2kbits/s speed=0.0166x elapsed=0:01:33.33    \nframe=   95 fps=1.0 q=43.6 size=     256KiB time=00:00:01.55 bitrate=1353.2kbits/s speed=0.0165x elapsed=0:01:33.86    \nframe=   96 fps=1.0 q=38.7 size=     256KiB time=00:00:01.56 bitrate=1338.8kbits/s speed=0.0166x elapsed=0:01:34.38    \nframe=   96 fps=1.0 q=38.7 size=     256KiB time=00:00:01.56 bitrate=1338.8kbits/s speed=0.0165x elapsed=0:01:34.93    \nframe=   96 fps=1.0 q=38.7 size=     256KiB time=00:00:01.56 bitrate=1338.8kbits/s speed=0.0164x elapsed=0:01:35.48    \nframe=   97 fps=1.0 q=42.2 size=     256KiB time=00:00:01.58 bitrate=1324.7kbits/s speed=0.0165x elapsed=0:01:36.00    \nframe=   97 fps=1.0 q=42.2 size=     256KiB time=00:00:01.58 bitrate=1324.7kbits/s speed=0.0164x elapsed=0:01:36.58    \nframe=   97 fps=1.0 q=42.2 size=     256KiB time=00:00:01.58 bitrate=1324.7kbits/s speed=0.0163x elapsed=0:01:37.12    \nframe=   98 fps=1.0 q=43.6 size=     256KiB time=00:00:01.60 bitrate=1310.9kbits/s speed=0.0164x elapsed=0:01:37.67    \nframe=   98 fps=1.0 q=43.6 size=     256KiB time=00:00:01.60 bitrate=1310.9kbits/s speed=0.0163x elapsed=0:01:38.23    \nframe=   99 fps=1.0 q=43.4 size=     256KiB time=00:00:01.61 bitrate=1297.4kbits/s speed=0.0164x elapsed=0:01:38.78    \nframe=  100 fps=1.0 q=43.7 size=     256KiB time=00:00:01.63 bitrate=1284.2kbits/s speed=0.0164x elapsed=0:01:39.31    \nframe=  100 fps=1.0 q=43.7 size=     256KiB time=00:00:01.63 bitrate=1284.2kbits/s speed=0.0164x elapsed=0:01:39.85    \nframe=  100 fps=1.0 q=43.7 size=     256KiB time=00:00:01.63 bitrate=1284.2kbits/s speed=0.0163x elapsed=0:01:40.42    \nframe=  101 fps=1.0 q=38.6 size=     256KiB time=00:00:01.65 bitrate=1271.2kbits/s speed=0.0163x elapsed=0:01:40.94    \nframe=  101 fps=1.0 q=38.6 size=     256KiB time=00:00:01.65 bitrate=1271.2kbits/s speed=0.0163x elapsed=0:01:41.47    \nframe=  101 fps=1.0 q=38.6 size=     256KiB time=00:00:01.65 bitrate=1271.2kbits/s speed=0.0162x elapsed=0:01:42.09    \nframe=  102 fps=1.0 q=41.2 size=     256KiB time=00:00:01.66 bitrate=1258.5kbits/s speed=0.0162x elapsed=0:01:42.64    \nframe=  102 fps=1.0 q=41.2 size=     256KiB time=00:00:01.66 bitrate=1258.5kbits/s speed=0.0162x elapsed=0:01:43.16    \nframe=  103 fps=1.0 q=44.4 size=     256KiB time=00:00:01.68 bitrate=1246.0kbits/s speed=0.0162x elapsed=0:01:43.67    \nframe=  103 fps=1.0 q=44.4 size=     256KiB time=00:00:01.68 bitrate=1246.0kbits/s speed=0.0162x elapsed=0:01:44.20    \nframe=  103 fps=1.0 q=44.4 size=     256KiB time=00:00:01.68 bitrate=1246.0kbits/s speed=0.0161x elapsed=0:01:44.74    \nframe=  103 fps=1.0 q=44.4 size=     256KiB time=00:00:01.68 bitrate=1246.0kbits/s speed=0.016x elapsed=0:01:45.29    \nframe=  103 fps=1.0 q=44.4 size=     256KiB time=00:00:01.68 bitrate=1246.0kbits/s speed=0.0159x elapsed=0:01:45.81    \nframe=  104 fps=1.0 q=38.7 size=     256KiB time=00:00:01.70 bitrate=1233.8kbits/s speed=0.016x elapsed=0:01:46.33    \nframe=  104 fps=1.0 q=38.7 size=     256KiB time=00:00:01.70 bitrate=1233.8kbits/s speed=0.0159x elapsed=0:01:46.87    \nframe=  104 fps=1.0 q=38.7 size=     256KiB time=00:00:01.70 bitrate=1233.8kbits/s speed=0.0158x elapsed=0:01:47.43    \nframe=  104 fps=1.0 q=38.7 size=     256KiB time=00:00:01.70 bitrate=1233.8kbits/s speed=0.0157x elapsed=0:01:47.94    \nframe=  105 fps=1.0 q=41.2 size=     256KiB time=00:00:01.71 bitrate=1221.8kbits/s speed=0.0158x elapsed=0:01:48.51    \nframe=  105 fps=1.0 q=41.2 size=     256KiB time=00:00:01.71 bitrate=1221.8kbits/s speed=0.0157x elapsed=0:01:49.05    \nframe=  106 fps=1.0 q=44.3 size=     256KiB time=00:00:01.73 bitrate=1210.1kbits/s speed=0.0158x elapsed=0:01:49.59    \nframe=  106 fps=1.0 q=44.3 size=     256KiB time=00:00:01.73 bitrate=1210.1kbits/s speed=0.0157x elapsed=0:01:50.14    \nframe=  106 fps=1.0 q=44.3 size=     256KiB time=00:00:01.73 bitrate=1210.1kbits/s speed=0.0157x elapsed=0:01:50.66    \nframe=  106 fps=1.0 q=44.3 size=     256KiB time=00:00:01.73 bitrate=1210.1kbits/s speed=0.0156x elapsed=0:01:51.18    \nframe=  107 fps=1.0 q=38.9 size=     256KiB time=00:00:01.75 bitrate=1198.6kbits/s speed=0.0157x elapsed=0:01:51.76    \nframe=  107 fps=1.0 q=38.9 size=     256KiB time=00:00:01.75 bitrate=1198.6kbits/s speed=0.0156x elapsed=0:01:52.29    \nframe=  107 fps=0.9 q=38.9 size=     256KiB time=00:00:01.75 bitrate=1198.6kbits/s speed=0.0155x elapsed=0:01:52.88    \nframe=  107 fps=0.9 q=38.9 size=     256KiB time=00:00:01.75 bitrate=1198.6kbits/s speed=0.0154x elapsed=0:01:53.44    \nframe=  108 fps=0.9 q=41.9 size=     256KiB time=00:00:01.75 bitrate=1198.6kbits/s speed=0.0153x elapsed=0:01:54.04    \nframe=  108 fps=0.9 q=41.9 size=     256KiB time=00:00:01.76 bitrate=1187.3kbits/s speed=0.0154x elapsed=0:01:54.67    \nframe=  108 fps=0.9 q=41.9 size=     256KiB time=00:00:01.76 bitrate=1187.3kbits/s speed=0.0153x elapsed=0:01:55.27    \nframe=  108 fps=0.9 q=41.9 size=     256KiB time=00:00:01.76 bitrate=1187.3kbits/s speed=0.0153x elapsed=0:01:55.82    \nframe=  108 fps=0.9 q=41.9 size=     256KiB time=00:00:01.76 bitrate=1187.3kbits/s speed=0.0152x elapsed=0:01:56.37    \nframe=  109 fps=0.9 q=44.3 size=     256KiB time=00:00:01.78 bitrate=1176.2kbits/s speed=0.0152x elapsed=0:01:56.94    \nframe=  109 fps=0.9 q=44.3 size=     256KiB time=00:00:01.78 bitrate=1176.2kbits/s speed=0.0152x elapsed=0:01:57.48    \nframe=  109 fps=0.9 q=44.3 size=     256KiB time=00:00:01.78 bitrate=1176.2kbits/s speed=0.0151x elapsed=0:01:58.00    \nframe=  109 fps=0.9 q=44.3 size=     256KiB time=00:00:01.78 bitrate=1176.2kbits/s speed=0.015x elapsed=0:01:58.54    \nframe=  110 fps=0.9 q=44.3 size=     256KiB time=00:00:01.80 bitrate=1165.3kbits/s speed=0.0151x elapsed=0:01:59.06    \nframe=  110 fps=0.9 q=44.3 size=     256KiB time=00:00:01.80 bitrate=1165.3kbits/s speed=0.0151x elapsed=0:01:59.58    \nframe=  111 fps=0.9 q=44.6 size=     256KiB time=00:00:01.81 bitrate=1154.6kbits/s speed=0.0151x elapsed=0:02:00.10    \nframe=  111 fps=0.9 q=44.6 size=     256KiB time=00:00:01.81 bitrate=1154.6kbits/s speed=0.0151x elapsed=0:02:00.64    \nframe=  111 fps=0.9 q=44.6 size=     256KiB time=00:00:01.81 bitrate=1154.6kbits/s speed=0.015x elapsed=0:02:01.16    \nframe=  112 fps=0.9 q=38.9 size=     256KiB time=00:00:01.83 bitrate=1144.1kbits/s speed=0.0151x elapsed=0:02:01.68    \nframe=  113 fps=0.9 q=42.2 size=     256KiB time=00:00:01.85 bitrate=1133.8kbits/s speed=0.0151x elapsed=0:02:02.18    \nframe=  113 fps=0.9 q=42.2 size=     256KiB time=00:00:01.85 bitrate=1133.8kbits/s speed=0.0151x elapsed=0:02:02.71    \nframe=  113 fps=0.9 q=42.2 size=     256KiB time=00:00:01.85 bitrate=1133.8kbits/s speed=0.015x elapsed=0:02:03.26    \nframe=  114 fps=0.9 q=44.4 size=     256KiB time=00:00:01.86 bitrate=1123.7kbits/s speed=0.0151x elapsed=0:02:03.80    \nframe=  115 fps=0.9 q=44.5 size=     256KiB time=00:00:01.88 bitrate=1113.7kbits/s speed=0.0151x elapsed=0:02:04.33    \nframe=  115 fps=0.9 q=44.5 size=     256KiB time=00:00:01.88 bitrate=1113.7kbits/s speed=0.0151x elapsed=0:02:04.85    \nframe=  115 fps=0.9 q=44.5 size=     256KiB time=00:00:01.88 bitrate=1113.7kbits/s speed=0.015x elapsed=0:02:05.36    \nframe=  116 fps=0.9 q=38.8 size=     256KiB time=00:00:01.90 bitrate=1103.9kbits/s speed=0.0151x elapsed=0:02:05.88    \nframe=  117 fps=0.9 q=42.9 size=     256KiB time=00:00:01.91 bitrate=1094.3kbits/s speed=0.0152x elapsed=0:02:06.39    \nframe=  118 fps=0.9 q=44.4 size=     256KiB time=00:00:01.93 bitrate=1084.9kbits/s speed=0.0152x elapsed=0:02:06.92    \nframe=  118 fps=0.9 q=44.4 size=     256KiB time=00:00:01.93 bitrate=1084.9kbits/s speed=0.0152x elapsed=0:02:07.44    \nframe=  119 fps=0.9 q=44.4 size=     256KiB time=00:00:01.95 bitrate=1075.6kbits/s speed=0.0152x elapsed=0:02:07.99    \nframe=  120 fps=0.9 q=44.5 size=     256KiB time=00:00:01.96 bitrate=1066.5kbits/s speed=0.0153x elapsed=0:02:08.53    \nframe=  122 fps=0.9 q=42.1 size=     256KiB time=00:00:02.00 bitrate=1048.8kbits/s speed=0.0155x elapsed=0:02:09.06    \nframe=  122 fps=0.9 q=42.1 size=     256KiB time=00:00:02.00 bitrate=1048.8kbits/s speed=0.0154x elapsed=0:02:09.59    \nframe=  122 fps=0.9 q=42.1 size=     256KiB time=00:00:02.00 bitrate=1048.8kbits/s speed=0.0154x elapsed=0:02:10.13    \nframe=  123 fps=0.9 q=44.4 size=     256KiB time=00:00:02.01 bitrate=1040.1kbits/s speed=0.0154x elapsed=0:02:10.67    \nframe=  124 fps=0.9 q=44.5 size=     256KiB time=00:00:02.03 bitrate=1031.6kbits/s speed=0.0155x elapsed=0:02:11.18    \nframe=  125 fps=0.9 q=38.6 size=     256KiB time=00:00:02.05 bitrate=1023.2kbits/s speed=0.0156x elapsed=0:02:11.72    \nframe=  125 fps=0.9 q=38.6 size=     256KiB time=00:00:02.05 bitrate=1023.2kbits/s speed=0.0155x elapsed=0:02:12.27    \nframe=  126 fps=0.9 q=42.1 size=     256KiB time=00:00:02.06 bitrate=1014.9kbits/s speed=0.0156x elapsed=0:02:12.79    \nframe=  126 fps=0.9 q=42.1 size=     256KiB time=00:00:02.06 bitrate=1014.9kbits/s speed=0.0155x elapsed=0:02:13.31    \nframe=  127 fps=0.9 q=44.4 size=     256KiB time=00:00:02.08 bitrate=1006.8kbits/s speed=0.0156x elapsed=0:02:13.83    \nframe=  128 fps=1.0 q=44.6 size=     256KiB time=00:00:02.10 bitrate= 998.8kbits/s speed=0.0156x elapsed=0:02:14.34    \nframe=  128 fps=0.9 q=44.6 size=     256KiB time=00:00:02.10 bitrate= 998.8kbits/s speed=0.0156x elapsed=0:02:14.88    \nframe=  129 fps=1.0 q=38.7 size=     256KiB time=00:00:02.11 bitrate= 990.9kbits/s speed=0.0156x elapsed=0:02:15.41    \nframe=  129 fps=0.9 q=38.7 size=     256KiB time=00:00:02.11 bitrate= 990.9kbits/s speed=0.0156x elapsed=0:02:15.98    \nframe=  129 fps=0.9 q=38.7 size=     256KiB time=00:00:02.11 bitrate= 990.9kbits/s speed=0.0155x elapsed=0:02:16.51    \nframe=  129 fps=0.9 q=38.7 size=     256KiB time=00:00:02.11 bitrate= 990.9kbits/s speed=0.0154x elapsed=0:02:17.05    \nframe=  131 fps=1.0 q=44.4 size=     256KiB time=00:00:02.15 bitrate= 975.6kbits/s speed=0.0156x elapsed=0:02:17.59    \nframe=  131 fps=0.9 q=44.4 size=     256KiB time=00:00:02.15 bitrate= 975.6kbits/s speed=0.0156x elapsed=0:02:18.11    \nframe=  132 fps=1.0 q=38.4 size=     256KiB time=00:00:02.16 bitrate= 968.1kbits/s speed=0.0156x elapsed=0:02:18.65    \nframe=  132 fps=0.9 q=38.4 size=     256KiB time=00:00:02.16 bitrate= 968.1kbits/s speed=0.0156x elapsed=0:02:19.22    \nframe=  132 fps=0.9 q=38.4 size=     256KiB time=00:00:02.16 bitrate= 968.1kbits/s speed=0.0155x elapsed=0:02:19.73    \nframe=  133 fps=0.9 q=42.0 size=     256KiB time=00:00:02.18 bitrate= 960.7kbits/s speed=0.0156x elapsed=0:02:20.26    \nframe=  133 fps=0.9 q=42.0 size=     256KiB time=00:00:02.18 bitrate= 960.7kbits/s speed=0.0155x elapsed=0:02:20.80    \nframe=  134 fps=0.9 q=44.4 size=     256KiB time=00:00:02.20 bitrate= 953.4kbits/s speed=0.0156x elapsed=0:02:21.33    \nframe=  135 fps=1.0 q=44.5 size=     256KiB time=00:00:02.21 bitrate= 946.2kbits/s speed=0.0156x elapsed=0:02:21.88    \nframe=  135 fps=0.9 q=44.5 size=     256KiB time=00:00:02.21 bitrate= 946.2kbits/s speed=0.0156x elapsed=0:02:22.44    \nframe=  135 fps=0.9 q=44.5 size=     256KiB time=00:00:02.21 bitrate= 946.2kbits/s speed=0.0155x elapsed=0:02:22.97    \nframe=  136 fps=0.9 q=38.4 size=     256KiB time=00:00:02.23 bitrate= 939.2kbits/s speed=0.0156x elapsed=0:02:23.51    \nframe=  136 fps=0.9 q=38.4 size=     256KiB time=00:00:02.23 bitrate= 939.2kbits/s speed=0.0155x elapsed=0:02:24.03    \nframe=  137 fps=0.9 q=42.8 size=     256KiB time=00:00:02.25 bitrate= 932.2kbits/s speed=0.0156x elapsed=0:02:24.55    \nframe=  137 fps=0.9 q=42.8 size=     256KiB time=00:00:02.25 bitrate= 932.2kbits/s speed=0.0155x elapsed=0:02:25.06    \nframe=  137 fps=0.9 q=42.8 size=     256KiB time=00:00:02.25 bitrate= 932.2kbits/s speed=0.0155x elapsed=0:02:25.62    \nframe=  138 fps=0.9 q=44.2 size=     256KiB time=00:00:02.26 bitrate= 925.4kbits/s speed=0.0155x elapsed=0:02:26.17    \nframe=  139 fps=0.9 q=44.4 size=     256KiB time=00:00:02.28 bitrate= 918.6kbits/s speed=0.0156x elapsed=0:02:26.71    \nframe=  140 fps=1.0 q=44.6 size=     256KiB time=00:00:02.30 bitrate= 912.0kbits/s speed=0.0156x elapsed=0:02:27.24    \nframe=  140 fps=0.9 q=44.6 size=     256KiB time=00:00:02.30 bitrate= 912.0kbits/s speed=0.0156x elapsed=0:02:27.78    \nframe=  140 fps=0.9 q=44.6 size=     256KiB time=00:00:02.30 bitrate= 912.0kbits/s speed=0.0155x elapsed=0:02:28.32    \nframe=  141 fps=0.9 q=38.8 size=     256KiB time=00:00:02.31 bitrate= 905.4kbits/s speed=0.0156x elapsed=0:02:28.85    \nframe=  142 fps=1.0 q=42.9 size=     256KiB time=00:00:02.33 bitrate= 898.9kbits/s speed=0.0156x elapsed=0:02:29.38    \nframe=  142 fps=0.9 q=42.9 size=     256KiB time=00:00:02.33 bitrate= 898.9kbits/s speed=0.0156x elapsed=0:02:29.91    \nframe=  143 fps=1.0 q=44.3 size=     256KiB time=00:00:02.35 bitrate= 892.6kbits/s speed=0.0156x elapsed=0:02:30.44    \nframe=  144 fps=1.0 q=44.4 size=     256KiB time=00:00:02.36 bitrate= 886.3kbits/s speed=0.0157x elapsed=0:02:30.97    \nframe=  144 fps=1.0 q=44.4 size=     256KiB time=00:00:02.36 bitrate= 886.3kbits/s speed=0.0156x elapsed=0:02:31.50    \nframe=  144 fps=0.9 q=44.4 size=     256KiB time=00:00:02.36 bitrate= 886.3kbits/s speed=0.0156x elapsed=0:02:32.04    \nframe=  145 fps=1.0 q=44.4 size=     256KiB time=00:00:02.38 bitrate= 880.1kbits/s speed=0.0156x elapsed=0:02:32.58    \nframe=  145 fps=0.9 q=44.4 size=     256KiB time=00:00:02.38 bitrate= 880.1kbits/s speed=0.0156x elapsed=0:02:33.24    \nframe=  146 fps=0.9 q=38.2 size=     256KiB time=00:00:02.40 bitrate= 874.0kbits/s speed=0.0156x elapsed=0:02:33.80    \nframe=  146 fps=0.9 q=38.2 size=     256KiB time=00:00:02.40 bitrate= 874.0kbits/s speed=0.0155x elapsed=0:02:34.40    \nframe=  146 fps=0.9 q=38.2 size=     256KiB time=00:00:02.40 bitrate= 874.0kbits/s speed=0.0155x elapsed=0:02:34.92    \nframe=  147 fps=0.9 q=42.1 size=     256KiB time=00:00:02.41 bitrate= 867.9kbits/s speed=0.0155x elapsed=0:02:35.45    \nframe=  148 fps=0.9 q=44.2 size=     256KiB time=00:00:02.43 bitrate= 862.0kbits/s speed=0.0156x elapsed=0:02:35.97    \nframe=  148 fps=0.9 q=44.2 size=     256KiB time=00:00:02.43 bitrate= 862.0kbits/s speed=0.0155x elapsed=0:02:36.48    \nframe=  149 fps=0.9 q=38.4 size=     256KiB time=00:00:02.45 bitrate= 856.1kbits/s speed=0.0156x elapsed=0:02:36.99    \nframe=  149 fps=0.9 q=38.4 size=     256KiB time=00:00:02.45 bitrate= 856.1kbits/s speed=0.0156x elapsed=0:02:37.53    \nframe=  149 fps=0.9 q=38.4 size=     256KiB time=00:00:02.45 bitrate= 856.1kbits/s speed=0.0155x elapsed=0:02:38.07    \nframe=  150 fps=0.9 q=41.8 size=     256KiB time=00:00:02.46 bitrate= 850.3kbits/s speed=0.0156x elapsed=0:02:38.62    \nframe=  151 fps=0.9 q=44.5 size=     256KiB time=00:00:02.48 bitrate= 844.6kbits/s speed=0.0156x elapsed=0:02:39.18    \nframe=  151 fps=0.9 q=44.5 size=     256KiB time=00:00:02.48 bitrate= 844.6kbits/s speed=0.0155x elapsed=0:02:39.71    \nframe=  151 fps=0.9 q=44.5 size=     256KiB time=00:00:02.48 bitrate= 844.6kbits/s speed=0.0155x elapsed=0:02:40.26    \nframe=  152 fps=0.9 q=44.4 size=     256KiB time=00:00:02.50 bitrate= 839.0kbits/s speed=0.0155x elapsed=0:02:40.81    \nframe=  153 fps=0.9 q=38.7 size=     256KiB time=00:00:02.51 bitrate= 833.4kbits/s speed=0.0156x elapsed=0:02:41.32    \nframe=  153 fps=0.9 q=38.7 size=     256KiB time=00:00:02.51 bitrate= 833.4kbits/s speed=0.0155x elapsed=0:02:41.87    \nframe=  153 fps=0.9 q=38.7 size=     256KiB time=00:00:02.51 bitrate= 833.4kbits/s speed=0.0155x elapsed=0:02:42.40    \nframe=  153 fps=0.9 q=38.7 size=     256KiB time=00:00:02.51 bitrate= 833.4kbits/s speed=0.0154x elapsed=0:02:42.93    \nframe=  153 fps=0.9 q=38.7 size=     256KiB time=00:00:02.51 bitrate= 833.4kbits/s speed=0.0154x elapsed=0:02:43.48    \nframe=  154 fps=0.9 q=41.3 size=     256KiB time=00:00:02.53 bitrate= 828.0kbits/s speed=0.0154x elapsed=0:02:44.02    \nframe=  155 fps=0.9 q=44.4 size=     256KiB time=00:00:02.55 bitrate= 822.6kbits/s speed=0.0155x elapsed=0:02:44.58    \nframe=  155 fps=0.9 q=44.4 size=     256KiB time=00:00:02.55 bitrate= 822.6kbits/s speed=0.0154x elapsed=0:02:45.12    \nframe=  155 fps=0.9 q=44.4 size=     256KiB time=00:00:02.55 bitrate= 822.6kbits/s speed=0.0154x elapsed=0:02:45.65    \nframe=  155 fps=0.9 q=44.4 size=     256KiB time=00:00:02.55 bitrate= 822.6kbits/s speed=0.0153x elapsed=0:02:46.19    \nframe=  155 fps=0.9 q=44.4 size=     256KiB time=00:00:02.55 bitrate= 822.6kbits/s speed=0.0153x elapsed=0:02:46.73    \nframe=  155 fps=0.9 q=44.4 size=     256KiB time=00:00:02.55 bitrate= 822.6kbits/s speed=0.0152x elapsed=0:02:47.24    \nframe=  156 fps=0.9 q=44.5 size=     256KiB time=00:00:02.56 bitrate= 817.2kbits/s speed=0.0153x elapsed=0:02:47.79    \nframe=  156 fps=0.9 q=44.5 size=     256KiB time=00:00:02.56 bitrate= 817.2kbits/s speed=0.0152x elapsed=0:02:48.34    \nframe=  156 fps=0.9 q=44.5 size=     256KiB time=00:00:02.56 bitrate= 817.2kbits/s speed=0.0152x elapsed=0:02:48.92    \nframe=  156 fps=0.9 q=44.5 size=     256KiB time=00:00:02.56 bitrate= 817.2kbits/s speed=0.0151x elapsed=0:02:49.51    \nframe=  156 fps=0.9 q=44.5 size=     256KiB time=00:00:02.56 bitrate= 817.2kbits/s speed=0.0151x elapsed=0:02:50.09    \nframe=  156 fps=0.9 q=44.5 size=     256KiB time=00:00:02.56 bitrate= 817.2kbits/s speed=0.015x elapsed=0:02:50.65    \nframe=  157 fps=0.9 q=38.6 size=     256KiB time=00:00:02.58 bitrate= 811.9kbits/s speed=0.0151x elapsed=0:02:51.20    \nframe=  157 fps=0.9 q=38.6 size=     256KiB time=00:00:02.58 bitrate= 811.9kbits/s speed=0.015x elapsed=0:02:51.74    \nframe=  157 fps=0.9 q=38.6 size=     256KiB time=00:00:02.58 bitrate= 811.9kbits/s speed=0.015x elapsed=0:02:52.27    \nframe=  157 fps=0.9 q=38.6 size=     256KiB time=00:00:02.58 bitrate= 811.9kbits/s speed=0.0149x elapsed=0:02:52.85    \nframe=  158 fps=0.9 q=41.6 size=     256KiB time=00:00:02.60 bitrate= 806.7kbits/s speed=0.015x elapsed=0:02:53.39    \nframe=  159 fps=0.9 q=44.3 size=     256KiB time=00:00:02.61 bitrate= 801.6kbits/s speed=0.015x elapsed=0:02:53.91    \nframe=  160 fps=0.9 q=44.1 size=     256KiB time=00:00:02.63 bitrate= 796.5kbits/s speed=0.0151x elapsed=0:02:54.43    \nframe=  160 fps=0.9 q=44.1 size=     256KiB time=00:00:02.63 bitrate= 796.5kbits/s speed=0.0151x elapsed=0:02:54.95    \nframe=  161 fps=0.9 q=38.2 size=     256KiB time=00:00:02.65 bitrate= 791.5kbits/s speed=0.0151x elapsed=0:02:55.47    \nframe=  161 fps=0.9 q=38.2 size=     256KiB time=00:00:02.65 bitrate= 791.5kbits/s speed=0.0151x elapsed=0:02:56.02    \nframe=  162 fps=0.9 q=41.8 size=     256KiB time=00:00:02.66 bitrate= 786.6kbits/s speed=0.0151x elapsed=0:02:56.53    \nframe=  162 fps=0.9 q=41.8 size=     256KiB time=00:00:02.66 bitrate= 786.6kbits/s speed=0.0151x elapsed=0:02:57.05    \nframe=  164 fps=0.9 q=44.3 size=     256KiB time=00:00:02.70 bitrate= 776.9kbits/s speed=0.0152x elapsed=0:02:57.61    \nframe=  164 fps=0.9 q=44.3 size=     256KiB time=00:00:02.70 bitrate= 776.9kbits/s speed=0.0152x elapsed=0:02:58.13    \nframe=  165 fps=0.9 q=38.4 size=     512KiB time=00:00:02.71 bitrate=1544.0kbits/s speed=0.0152x elapsed=0:02:58.66    \nframe=  166 fps=0.9 q=41.8 size=     512KiB time=00:00:02.73 bitrate=1534.6kbits/s speed=0.0153x elapsed=0:02:59.20    \nframe=  167 fps=0.9 q=44.3 size=     512KiB time=00:00:02.75 bitrate=1525.3kbits/s speed=0.0153x elapsed=0:02:59.72    \nframe=  167 fps=0.9 q=44.3 size=     512KiB time=00:00:02.75 bitrate=1525.3kbits/s speed=0.0153x elapsed=0:03:00.25    \nframe=  168 fps=0.9 q=44.1 size=     512KiB time=00:00:02.76 bitrate=1516.1kbits/s speed=0.0153x elapsed=0:03:00.80    \nframe=  168 fps=0.9 q=44.1 size=     512KiB time=00:00:02.76 bitrate=1516.1kbits/s speed=0.0153x elapsed=0:03:01.32    \nframe=  169 fps=0.9 q=38.3 size=     512KiB time=00:00:02.78 bitrate=1507.1kbits/s speed=0.0153x elapsed=0:03:01.84    \nframe=  169 fps=0.9 q=38.3 size=     512KiB time=00:00:02.78 bitrate=1507.1kbits/s speed=0.0153x elapsed=0:03:02.39    \nframe=  170 fps=0.9 q=41.6 size=     512KiB time=00:00:02.80 bitrate=1498.1kbits/s speed=0.0153x elapsed=0:03:02.92    \nframe=  171 fps=0.9 q=44.1 size=     512KiB time=00:00:02.81 bitrate=1489.2kbits/s speed=0.0154x elapsed=0:03:03.44    \nframe=  172 fps=0.9 q=44.3 size=     512KiB time=00:00:02.83 bitrate=1480.5kbits/s speed=0.0154x elapsed=0:03:03.96    \nframe=  172 fps=0.9 q=44.3 size=     512KiB time=00:00:02.83 bitrate=1480.5kbits/s speed=0.0154x elapsed=0:03:04.47    \nframe=  172 fps=0.9 q=44.3 size=     512KiB time=00:00:02.83 bitrate=1480.5kbits/s speed=0.0153x elapsed=0:03:05.04    \nframe=  172 fps=0.9 q=44.3 size=     512KiB time=00:00:02.83 bitrate=1480.5kbits/s speed=0.0153x elapsed=0:03:05.57    \nframe=  173 fps=0.9 q=38.9 size=     512KiB time=00:00:02.85 bitrate=1471.8kbits/s speed=0.0153x elapsed=0:03:06.10    \nframe=  173 fps=0.9 q=38.9 size=     512KiB time=00:00:02.85 bitrate=1471.8kbits/s speed=0.0153x elapsed=0:03:06.63    \nframe=  173 fps=0.9 q=38.9 size=     512KiB time=00:00:02.85 bitrate=1471.8kbits/s speed=0.0152x elapsed=0:03:07.16    \nframe=  174 fps=0.9 q=41.5 size=     512KiB time=00:00:02.86 bitrate=1463.3kbits/s speed=0.0153x elapsed=0:03:07.71    \nframe=  174 fps=0.9 q=41.5 size=     512KiB time=00:00:02.86 bitrate=1463.3kbits/s speed=0.0152x elapsed=0:03:08.24    \nframe=  174 fps=0.9 q=41.5 size=     512KiB time=00:00:02.86 bitrate=1463.3kbits/s speed=0.0152x elapsed=0:03:08.80    \nframe=  176 fps=0.9 q=44.3 size=     512KiB time=00:00:02.90 bitrate=1446.4kbits/s speed=0.0153x elapsed=0:03:09.35    \nframe=  176 fps=0.9 q=44.3 size=     512KiB time=00:00:02.90 bitrate=1446.4kbits/s speed=0.0153x elapsed=0:03:09.86    \nframe=  177 fps=0.9 q=39.1 size=     512KiB time=00:00:02.91 bitrate=1438.2kbits/s speed=0.0153x elapsed=0:03:10.40    \nframe=  177 fps=0.9 q=39.1 size=     512KiB time=00:00:02.91 bitrate=1438.2kbits/s speed=0.0153x elapsed=0:03:10.95    \nframe=  178 fps=0.9 q=41.2 size=     512KiB time=00:00:02.93 bitrate=1430.0kbits/s speed=0.0153x elapsed=0:03:11.51    \nframe=  178 fps=0.9 q=41.2 size=     512KiB time=00:00:02.93 bitrate=1430.0kbits/s speed=0.0153x elapsed=0:03:12.04    \nframe=  179 fps=0.9 q=44.3 size=     512KiB time=00:00:02.95 bitrate=1421.9kbits/s speed=0.0153x elapsed=0:03:12.58    \nframe=  180 fps=0.9 q=44.3 size=     512KiB time=00:00:02.96 bitrate=1413.9kbits/s speed=0.0154x elapsed=0:03:13.10    \nframe=  180 fps=0.9 q=44.3 size=     512KiB time=00:00:02.96 bitrate=1413.9kbits/s speed=0.0153x elapsed=0:03:13.64    \nframe=  180 fps=0.9 q=44.3 size=     512KiB time=00:00:02.96 bitrate=1413.9kbits/s speed=0.0153x elapsed=0:03:14.16    \nframe=  181 fps=0.9 q=39.4 size=     512KiB time=00:00:02.98 bitrate=1406.0kbits/s speed=0.0153x elapsed=0:03:14.69    \nframe=  183 fps=0.9 q=44.2 size=     512KiB time=00:00:03.01 bitrate=1390.5kbits/s speed=0.0155x elapsed=0:03:15.20    \nframe=  183 fps=0.9 q=44.2 size=     512KiB time=00:00:03.01 bitrate=1390.5kbits/s speed=0.0154x elapsed=0:03:15.77    \nframe=  183 fps=0.9 q=44.2 size=     512KiB time=00:00:03.01 bitrate=1390.5kbits/s speed=0.0154x elapsed=0:03:16.33    \nframe=  183 fps=0.9 q=44.2 size=     512KiB time=00:00:03.01 bitrate=1390.5kbits/s speed=0.0153x elapsed=0:03:16.86    \nframe=  183 fps=0.9 q=44.2 size=     512KiB time=00:00:03.01 bitrate=1390.5kbits/s speed=0.0153x elapsed=0:03:17.42    \nframe=  184 fps=0.9 q=44.4 size=     512KiB time=00:00:03.03 bitrate=1382.9kbits/s speed=0.0153x elapsed=0:03:17.98    \nframe=  184 fps=0.9 q=44.4 size=     512KiB time=00:00:03.03 bitrate=1382.9kbits/s speed=0.0153x elapsed=0:03:18.50    \nframe=  184 fps=0.9 q=44.4 size=     512KiB time=00:00:03.03 bitrate=1382.9kbits/s speed=0.0152x elapsed=0:03:19.03    \nframe=  185 fps=0.9 q=38.7 size=     512KiB time=00:00:03.05 bitrate=1375.3kbits/s speed=0.0153x elapsed=0:03:19.57    \nframe=  186 fps=0.9 q=41.7 size=     512KiB time=00:00:03.06 bitrate=1367.8kbits/s speed=0.0153x elapsed=0:03:20.12    \nframe=  187 fps=0.9 q=44.1 size=     512KiB time=00:00:03.08 bitrate=1360.4kbits/s speed=0.0154x elapsed=0:03:20.67    \nframe=  187 fps=0.9 q=44.1 size=     512KiB time=00:00:03.08 bitrate=1360.4kbits/s speed=0.0153x elapsed=0:03:21.22    \nframe=  188 fps=0.9 q=44.4 size=     512KiB time=00:00:03.10 bitrate=1353.1kbits/s speed=0.0154x elapsed=0:03:21.75    \nframe=  188 fps=0.9 q=44.4 size=     512KiB time=00:00:03.10 bitrate=1353.1kbits/s speed=0.0153x elapsed=0:03:22.28    \nframe=  188 fps=0.9 q=44.4 size=     512KiB time=00:00:03.10 bitrate=1353.1kbits/s speed=0.0153x elapsed=0:03:22.82    \nframe=  189 fps=0.9 q=39.2 size=     512KiB time=00:00:03.11 bitrate=1345.9kbits/s speed=0.0153x elapsed=0:03:23.38    \nframe=  189 fps=0.9 q=39.2 size=     512KiB time=00:00:03.11 bitrate=1345.9kbits/s speed=0.0153x elapsed=0:03:23.93    \nframe=  190 fps=0.9 q=41.8 size=     512KiB time=00:00:03.13 bitrate=1338.7kbits/s speed=0.0153x elapsed=0:03:24.47    \nframe=  191 fps=0.9 q=44.2 size=     512KiB time=00:00:03.15 bitrate=1331.6kbits/s speed=0.0154x elapsed=0:03:24.99    \nframe=  191 fps=0.9 q=44.2 size=     512KiB time=00:00:03.15 bitrate=1331.6kbits/s speed=0.0153x elapsed=0:03:25.53    \nframe=  191 fps=0.9 q=44.2 size=     512KiB time=00:00:03.15 bitrate=1331.6kbits/s speed=0.0153x elapsed=0:03:26.04    \nframe=  192 fps=0.9 q=44.4 size=     512KiB time=00:00:03.16 bitrate=1324.6kbits/s speed=0.0153x elapsed=0:03:26.58    \nframe=  192 fps=0.9 q=44.4 size=     512KiB time=00:00:03.16 bitrate=1324.6kbits/s speed=0.0153x elapsed=0:03:27.11    \nframe=  193 fps=0.9 q=38.5 size=     512KiB time=00:00:03.18 bitrate=1317.7kbits/s speed=0.0153x elapsed=0:03:27.63    \nframe=  193 fps=0.9 q=38.5 size=     512KiB time=00:00:03.18 bitrate=1317.7kbits/s speed=0.0153x elapsed=0:03:28.16    \nframe=  193 fps=0.9 q=38.5 size=     512KiB time=00:00:03.18 bitrate=1317.7kbits/s speed=0.0153x elapsed=0:03:28.67    \nframe=  193 fps=0.9 q=38.5 size=     512KiB time=00:00:03.18 bitrate=1317.7kbits/s speed=0.0152x elapsed=0:03:29.18    \nframe=  194 fps=0.9 q=42.4 size=     512KiB time=00:00:03.20 bitrate=1310.8kbits/s speed=0.0153x elapsed=0:03:29.70    \nframe=  194 fps=0.9 q=42.4 size=     512KiB time=00:00:03.20 bitrate=1310.8kbits/s speed=0.0152x elapsed=0:03:30.22    \nframe=  195 fps=0.9 q=44.2 size=     512KiB time=00:00:03.21 bitrate=1304.0kbits/s speed=0.0153x elapsed=0:03:30.75    \nframe=  196 fps=0.9 q=44.1 size=     512KiB time=00:00:03.23 bitrate=1297.3kbits/s speed=0.0153x elapsed=0:03:31.31    \nframe=  197 fps=0.9 q=44.2 size=     512KiB time=00:00:03.25 bitrate=1290.7kbits/s speed=0.0153x elapsed=0:03:31.89    \nframe=  197 fps=0.9 q=44.2 size=     512KiB time=00:00:03.25 bitrate=1290.7kbits/s speed=0.0153x elapsed=0:03:32.42    \nframe=  198 fps=0.9 q=39.1 size=     512KiB time=00:00:03.26 bitrate=1284.1kbits/s speed=0.0153x elapsed=0:03:32.93    \nframe=  199 fps=0.9 q=41.5 size=     512KiB time=00:00:03.28 bitrate=1277.6kbits/s speed=0.0154x elapsed=0:03:33.48    \nframe=  199 fps=0.9 q=41.5 size=     512KiB time=00:00:03.28 bitrate=1277.6kbits/s speed=0.0153x elapsed=0:03:34.04    \nframe=  199 fps=0.9 q=41.5 size=     512KiB time=00:00:03.28 bitrate=1277.6kbits/s speed=0.0153x elapsed=0:03:34.59    \nframe=  201 fps=0.9 q=44.2 size=     512KiB time=00:00:03.31 bitrate=1264.7kbits/s speed=0.0154x elapsed=0:03:35.14    \nframe=  201 fps=0.9 q=44.2 size=     512KiB time=00:00:03.31 bitrate=1264.7kbits/s speed=0.0154x elapsed=0:03:35.69    \nframe=  201 fps=0.9 q=44.2 size=     512KiB time=00:00:03.31 bitrate=1264.7kbits/s speed=0.0153x elapsed=0:03:36.20    \nframe=  203 fps=0.9 q=42.3 size=     512KiB time=00:00:03.35 bitrate=1252.1kbits/s speed=0.0155x elapsed=0:03:36.72    \nframe=  203 fps=0.9 q=42.3 size=     512KiB time=00:00:03.35 bitrate=1252.1kbits/s speed=0.0154x elapsed=0:03:37.26    \nframe=  203 fps=0.9 q=42.3 size=     512KiB time=00:00:03.35 bitrate=1252.1kbits/s speed=0.0154x elapsed=0:03:37.82    \nframe=  203 fps=0.9 q=42.3 size=     512KiB time=00:00:03.35 bitrate=1252.1kbits/s speed=0.0153x elapsed=0:03:38.35    \nframe=  203 fps=0.9 q=42.3 size=     512KiB time=00:00:03.35 bitrate=1252.1kbits/s speed=0.0153x elapsed=0:03:38.89    \nframe=  203 fps=0.9 q=42.3 size=     512KiB time=00:00:03.35 bitrate=1252.1kbits/s speed=0.0153x elapsed=0:03:39.40    \nframe=  204 fps=0.9 q=44.3 size=     512KiB time=00:00:03.36 bitrate=1245.9kbits/s speed=0.0153x elapsed=0:03:39.94    \nframe=  205 fps=0.9 q=39.0 size=     512KiB time=00:00:03.38 bitrate=1239.8kbits/s speed=0.0153x elapsed=0:03:40.47    \nframe=  205 fps=0.9 q=39.0 size=     512KiB time=00:00:03.38 bitrate=1239.8kbits/s speed=0.0153x elapsed=0:03:41.01    \nframe=  205 fps=0.9 q=39.0 size=     512KiB time=00:00:03.38 bitrate=1239.8kbits/s speed=0.0153x elapsed=0:03:41.55    \nframe=  206 fps=0.9 q=43.1 size=     512KiB time=00:00:03.40 bitrate=1233.7kbits/s speed=0.0153x elapsed=0:03:42.13    \nframe=  206 fps=0.9 q=43.1 size=     512KiB time=00:00:03.40 bitrate=1233.7kbits/s speed=0.0153x elapsed=0:03:42.68    \nframe=  206 fps=0.9 q=43.1 size=     512KiB time=00:00:03.40 bitrate=1233.7kbits/s speed=0.0152x elapsed=0:03:43.22    \nframe=  207 fps=0.9 q=44.4 size=     512KiB time=00:00:03.41 bitrate=1227.7kbits/s speed=0.0153x elapsed=0:03:43.80    \nframe=  207 fps=0.9 q=44.4 size=     512KiB time=00:00:03.41 bitrate=1227.7kbits/s speed=0.0152x elapsed=0:03:44.45    \nframe=  207 fps=0.9 q=44.4 size=     512KiB time=00:00:03.41 bitrate=1227.7kbits/s speed=0.0152x elapsed=0:03:45.07    \nframe=  207 fps=0.9 q=44.4 size=     512KiB time=00:00:03.41 bitrate=1227.7kbits/s speed=0.0151x elapsed=0:03:45.66    \nframe=  207 fps=0.9 q=44.4 size=     512KiB time=00:00:03.41 bitrate=1227.7kbits/s speed=0.0151x elapsed=0:03:46.24    \nframe=  207 fps=0.9 q=44.4 size=     512KiB time=00:00:03.41 bitrate=1227.7kbits/s speed=0.0151x elapsed=0:03:46.79    \nframe=  207 fps=0.9 q=44.4 size=     512KiB time=00:00:03.41 bitrate=1227.7kbits/s speed=0.015x elapsed=0:03:47.35    \nframe=  208 fps=0.9 q=44.4 size=     512KiB time=00:00:03.43 bitrate=1221.7kbits/s speed=0.0151x elapsed=0:03:47.86    \nframe=  208 fps=0.9 q=44.4 size=     512KiB time=00:00:03.43 bitrate=1221.7kbits/s speed=0.015x elapsed=0:03:48.42    \nframe=  208 fps=0.9 q=44.4 size=     512KiB time=00:00:03.43 bitrate=1221.7kbits/s speed=0.015x elapsed=0:03:48.99    \nframe=  209 fps=0.9 q=39.9 size=     512KiB time=00:00:03.45 bitrate=1215.8kbits/s speed=0.015x elapsed=0:03:49.54    \nframe=  210 fps=0.9 q=43.5 size=     512KiB time=00:00:03.46 bitrate=1210.0kbits/s speed=0.0151x elapsed=0:03:50.06    \nframe=  211 fps=0.9 q=45.1 size=     512KiB time=00:00:03.46 bitrate=1210.0kbits/s speed=0.015x elapsed=0:03:50.58    \nframe=  211 fps=0.9 q=45.1 size=     512KiB time=00:00:03.48 bitrate=1204.2kbits/s speed=0.0151x elapsed=0:03:51.12    \nframe=  211 fps=0.9 q=45.1 size=     512KiB time=00:00:03.48 bitrate=1204.2kbits/s speed=0.015x elapsed=0:03:51.65    \nframe=  212 fps=0.9 q=45.4 size=     512KiB time=00:00:03.50 bitrate=1198.5kbits/s speed=0.0151x elapsed=0:03:52.18    \nframe=  212 fps=0.9 q=45.4 size=     512KiB time=00:00:03.50 bitrate=1198.5kbits/s speed=0.015x elapsed=0:03:52.71    \nframe=  213 fps=0.9 q=40.6 size=     512KiB time=00:00:03.51 bitrate=1192.8kbits/s speed=0.0151x elapsed=0:03:53.22    \nframe=  214 fps=0.9 q=44.1 size=     512KiB time=00:00:03.53 bitrate=1187.2kbits/s speed=0.0151x elapsed=0:03:53.75    \nframe=  214 fps=0.9 q=44.1 size=     512KiB time=00:00:03.53 bitrate=1187.2kbits/s speed=0.0151x elapsed=0:03:54.30    \nframe=  214 fps=0.9 q=44.1 size=     512KiB time=00:00:03.53 bitrate=1187.2kbits/s speed=0.015x elapsed=0:03:54.81    \nframe=  215 fps=0.9 q=45.4 size=     512KiB time=00:00:03.55 bitrate=1181.6kbits/s speed=0.0151x elapsed=0:03:55.33    \nframe=  216 fps=0.9 q=46.1 size=     512KiB time=00:00:03.56 bitrate=1176.1kbits/s speed=0.0151x elapsed=0:03:55.84    \nframe=  216 fps=0.9 q=46.1 size=     512KiB time=00:00:03.56 bitrate=1176.1kbits/s speed=0.0151x elapsed=0:03:56.36    \nframe=  217 fps=0.9 q=41.4 size=     512KiB time=00:00:03.58 bitrate=1170.6kbits/s speed=0.0151x elapsed=0:03:56.90    \nframe=  218 fps=0.9 q=45.2 size=     512KiB time=00:00:03.60 bitrate=1165.2kbits/s speed=0.0152x elapsed=0:03:57.42    \nframe=  219 fps=0.9 q=46.3 size=     512KiB time=00:00:03.61 bitrate=1159.8kbits/s speed=0.0152x elapsed=0:03:57.94    \nframe=  220 fps=0.9 q=46.5 size=     512KiB time=00:00:03.63 bitrate=1154.5kbits/s speed=0.0152x elapsed=0:03:58.45    \nframe=  220 fps=0.9 q=46.5 size=     512KiB time=00:00:03.63 bitrate=1154.5kbits/s speed=0.0152x elapsed=0:03:58.98    \nframe=  220 fps=0.9 q=46.5 size=     512KiB time=00:00:03.63 bitrate=1154.5kbits/s speed=0.0152x elapsed=0:03:59.51    \nframe=  221 fps=0.9 q=42.0 size=     512KiB time=00:00:03.65 bitrate=1149.2kbits/s speed=0.0152x elapsed=0:04:00.03    \nframe=  222 fps=0.9 q=45.3 size=     512KiB time=00:00:03.66 bitrate=1144.0kbits/s speed=0.0152x elapsed=0:04:00.55    \nframe=  223 fps=0.9 q=47.1 size=     512KiB time=00:00:03.68 bitrate=1138.8kbits/s speed=0.0153x elapsed=0:04:01.07    \nframe=  223 fps=0.9 q=47.1 size=     512KiB time=00:00:03.68 bitrate=1138.8kbits/s speed=0.0152x elapsed=0:04:01.61    \nframe=  223 fps=0.9 q=47.1 size=     512KiB time=00:00:03.68 bitrate=1138.8kbits/s speed=0.0152x elapsed=0:04:02.15    \nframe=  224 fps=0.9 q=47.1 size=     512KiB time=00:00:03.70 bitrate=1133.7kbits/s speed=0.0152x elapsed=0:04:02.67    \nframe=  225 fps=0.9 q=42.3 size=     512KiB time=00:00:03.71 bitrate=1128.6kbits/s speed=0.0153x elapsed=0:04:03.19    \nframe=  226 fps=0.9 q=45.6 size=     512KiB time=00:00:03.73 bitrate=1123.6kbits/s speed=0.0153x elapsed=0:04:03.72    \nframe=  226 fps=0.9 q=45.6 size=     512KiB time=00:00:03.73 bitrate=1123.6kbits/s speed=0.0153x elapsed=0:04:04.25    \nframe=  227 fps=0.9 q=47.2 size=     512KiB time=00:00:03.75 bitrate=1118.6kbits/s speed=0.0153x elapsed=0:04:04.76    \nframe=  228 fps=0.9 q=43.0 size=     512KiB time=00:00:03.76 bitrate=1113.6kbits/s speed=0.0154x elapsed=0:04:05.28    \nframe=  229 fps=0.9 q=46.8 size=     512KiB time=00:00:03.78 bitrate=1108.7kbits/s speed=0.0154x elapsed=0:04:05.81    \nframe=  229 fps=0.9 q=46.8 size=     512KiB time=00:00:03.78 bitrate=1108.7kbits/s speed=0.0154x elapsed=0:04:06.33    \nframe=  229 fps=0.9 q=46.8 size=     512KiB time=00:00:03.78 bitrate=1108.7kbits/s speed=0.0153x elapsed=0:04:06.88    \nframe=  229 fps=0.9 q=46.8 size=     512KiB time=00:00:03.78 bitrate=1108.7kbits/s speed=0.0153x elapsed=0:04:07.44    \nframe=  229 fps=0.9 q=46.8 size=     512KiB time=00:00:03.78 bitrate=1108.7kbits/s speed=0.0153x elapsed=0:04:07.97    \nframe=  229 fps=0.9 q=46.8 size=     512KiB time=00:00:03.78 bitrate=1108.7kbits/s speed=0.0152x elapsed=0:04:08.51    \nframe=  230 fps=0.9 q=47.9 size=     512KiB time=00:00:03.80 bitrate=1103.9kbits/s speed=0.0153x elapsed=0:04:09.05    \nframe=  230 fps=0.9 q=47.9 size=     512KiB time=00:00:03.80 bitrate=1103.9kbits/s speed=0.0152x elapsed=0:04:09.59    \nframe=  230 fps=0.9 q=47.9 size=     512KiB time=00:00:03.80 bitrate=1103.9kbits/s speed=0.0152x elapsed=0:04:10.14    \nframe=  230 fps=0.9 q=47.9 size=     512KiB time=00:00:03.80 bitrate=1103.9kbits/s speed=0.0152x elapsed=0:04:10.69    \nframe=  232 fps=0.9 q=46.5 size=     512KiB time=00:00:03.83 bitrate=1094.3kbits/s speed=0.0153x elapsed=0:04:11.20    \nframe=  233 fps=0.9 q=48.1 size=     512KiB time=00:00:03.85 bitrate=1089.5kbits/s speed=0.0153x elapsed=0:04:11.73    \nframe=  233 fps=0.9 q=48.1 size=     512KiB time=00:00:03.85 bitrate=1089.5kbits/s speed=0.0153x elapsed=0:04:12.27    \nframe=  233 fps=0.9 q=48.1 size=     512KiB time=00:00:03.85 bitrate=1089.5kbits/s speed=0.0152x elapsed=0:04:12.82    \nframe=  234 fps=0.9 q=42.2 size=     512KiB time=00:00:03.86 bitrate=1084.8kbits/s speed=0.0153x elapsed=0:04:13.33    \nframe=  234 fps=0.9 q=42.2 size=     512KiB time=00:00:03.86 bitrate=1084.8kbits/s speed=0.0152x elapsed=0:04:13.91    \nframe=  234 fps=0.9 q=42.2 size=     512KiB time=00:00:03.86 bitrate=1084.8kbits/s speed=0.0152x elapsed=0:04:14.48    \nframe=  235 fps=0.9 q=46.5 size=     512KiB time=00:00:03.88 bitrate=1080.2kbits/s speed=0.0152x elapsed=0:04:15.02    \nframe=  236 fps=0.9 q=47.9 size=     512KiB time=00:00:03.90 bitrate=1075.6kbits/s speed=0.0153x elapsed=0:04:15.57    \nframe=  236 fps=0.9 q=47.9 size=     512KiB time=00:00:03.90 bitrate=1075.6kbits/s speed=0.0152x elapsed=0:04:16.13    \nframe=  236 fps=0.9 q=47.9 size=     512KiB time=00:00:03.90 bitrate=1075.6kbits/s speed=0.0152x elapsed=0:04:16.70    \nframe=  237 fps=0.9 q=42.3 size=     512KiB time=00:00:03.91 bitrate=1071.0kbits/s speed=0.0152x elapsed=0:04:17.25    \nframe=  237 fps=0.9 q=42.3 size=     512KiB time=00:00:03.91 bitrate=1071.0kbits/s speed=0.0152x elapsed=0:04:17.83    \nframe=  237 fps=0.9 q=42.3 size=     512KiB time=00:00:03.91 bitrate=1071.0kbits/s speed=0.0152x elapsed=0:04:18.37    \nframe=  237 fps=0.9 q=42.3 size=     512KiB time=00:00:03.91 bitrate=1071.0kbits/s speed=0.0151x elapsed=0:04:18.95    \nframe=  237 fps=0.9 q=42.3 size=     512KiB time=00:00:03.91 bitrate=1071.0kbits/s speed=0.0151x elapsed=0:04:19.55    \nframe=  237 fps=0.9 q=42.3 size=     512KiB time=00:00:03.91 bitrate=1071.0kbits/s speed=0.0151x elapsed=0:04:20.12    \nframe=  237 fps=0.9 q=42.3 size=     512KiB time=00:00:03.91 bitrate=1071.0kbits/s speed=0.015x elapsed=0:04:20.71    \nframe=  237 fps=0.9 q=42.3 size=     512KiB time=00:00:03.91 bitrate=1071.0kbits/s speed=0.015x elapsed=0:04:21.28    \nframe=  237 fps=0.9 q=42.3 size=     512KiB time=00:00:03.91 bitrate=1071.0kbits/s speed=0.015x elapsed=0:04:21.83    \nframe=  237 fps=0.9 q=42.3 size=     512KiB time=00:00:03.91 bitrate=1071.0kbits/s speed=0.0149x elapsed=0:04:22.37    \nframe=  237 fps=0.9 q=42.3 size=     512KiB time=00:00:03.91 bitrate=1071.0kbits/s speed=0.0149x elapsed=0:04:22.89    \nframe=  237 fps=0.9 q=42.3 size=     512KiB time=00:00:03.91 bitrate=1071.0kbits/s speed=0.0149x elapsed=0:04:23.42    \nframe=  238 fps=0.9 q=46.4 size=     512KiB time=00:00:03.93 bitrate=1066.4kbits/s speed=0.0149x elapsed=0:04:23.95    \nframe=  238 fps=0.9 q=46.4 size=     512KiB time=00:00:03.93 bitrate=1066.4kbits/s speed=0.0149x elapsed=0:04:24.47    \nframe=  239 fps=0.9 q=47.5 size=     512KiB time=00:00:03.95 bitrate=1061.9kbits/s speed=0.0149x elapsed=0:04:24.99    \nframe=  239 fps=0.9 q=47.5 size=     512KiB time=00:00:03.95 bitrate=1061.9kbits/s speed=0.0149x elapsed=0:04:25.52    \nframe=  239 fps=0.9 q=47.5 size=     512KiB time=00:00:03.95 bitrate=1061.9kbits/s speed=0.0148x elapsed=0:04:26.03    \nframe=  240 fps=0.9 q=42.4 size=     512KiB time=00:00:03.96 bitrate=1057.5kbits/s speed=0.0149x elapsed=0:04:26.57    \nframe=  240 fps=0.9 q=42.4 size=     512KiB time=00:00:03.96 bitrate=1057.5kbits/s speed=0.0149x elapsed=0:04:27.10    \nframe=  240 fps=0.9 q=42.4 size=     512KiB time=00:00:03.96 bitrate=1057.5kbits/s speed=0.0148x elapsed=0:04:27.62    \nframe=  240 fps=0.9 q=42.4 size=     512KiB time=00:00:03.96 bitrate=1057.5kbits/s speed=0.0148x elapsed=0:04:28.14    \nframe=  241 fps=0.9 q=47.0 size=     768KiB time=00:00:03.98 bitrate=1579.5kbits/s speed=0.0148x elapsed=0:04:28.70    \nframe=  242 fps=0.9 q=41.8 size=     768KiB time=00:00:04.00 bitrate=1573.0kbits/s speed=0.0149x elapsed=0:04:29.26    \nframe=  242 fps=0.9 q=41.8 size=     768KiB time=00:00:04.00 bitrate=1573.0kbits/s speed=0.0148x elapsed=0:04:29.80    \nframe=  242 fps=0.9 q=41.8 size=     768KiB time=00:00:04.00 bitrate=1573.0kbits/s speed=0.0148x elapsed=0:04:30.33    \nframe=  243 fps=0.9 q=45.8 size=     768KiB time=00:00:04.01 bitrate=1566.4kbits/s speed=0.0148x elapsed=0:04:30.85    \nframe=  243 fps=0.9 q=45.8 size=     768KiB time=00:00:04.01 bitrate=1566.4kbits/s speed=0.0148x elapsed=0:04:31.41    \nframe=  243 fps=0.9 q=45.8 size=     768KiB time=00:00:04.01 bitrate=1566.4kbits/s speed=0.0148x elapsed=0:04:31.96    \nframe=  243 fps=0.9 q=45.8 size=     768KiB time=00:00:04.01 bitrate=1566.4kbits/s speed=0.0147x elapsed=0:04:32.51    \nframe=  244 fps=0.9 q=47.3 size=     768KiB time=00:00:04.03 bitrate=1560.0kbits/s speed=0.0148x elapsed=0:04:33.06    \nframe=  244 fps=0.9 q=47.3 size=     768KiB time=00:00:04.03 bitrate=1560.0kbits/s speed=0.0147x elapsed=0:04:33.61    \nframe=  245 fps=0.9 q=41.4 size=     768KiB time=00:00:04.05 bitrate=1553.5kbits/s speed=0.0148x elapsed=0:04:34.14    \nframe=  245 fps=0.9 q=41.4 size=     768KiB time=00:00:04.05 bitrate=1553.5kbits/s speed=0.0147x elapsed=0:04:34.68    \nframe=  245 fps=0.9 q=41.4 size=     768KiB time=00:00:04.05 bitrate=1553.5kbits/s speed=0.0147x elapsed=0:04:35.25    \nframe=  245 fps=0.9 q=41.4 size=     768KiB time=00:00:04.05 bitrate=1553.5kbits/s speed=0.0147x elapsed=0:04:35.85    \nframe=  245 fps=0.9 q=41.4 size=     768KiB time=00:00:04.05 bitrate=1553.5kbits/s speed=0.0146x elapsed=0:04:36.46    \nframe=  245 fps=0.9 q=41.4 size=     768KiB time=00:00:04.05 bitrate=1553.5kbits/s speed=0.0146x elapsed=0:04:37.15    \nframe=  245 fps=0.9 q=41.4 size=     768KiB time=00:00:04.05 bitrate=1553.5kbits/s speed=0.0146x elapsed=0:04:37.81    \nframe=  245 fps=0.9 q=41.4 size=     768KiB time=00:00:04.05 bitrate=1553.5kbits/s speed=0.0145x elapsed=0:04:38.43    \nframe=  245 fps=0.9 q=41.4 size=     768KiB time=00:00:04.05 bitrate=1553.5kbits/s speed=0.0145x elapsed=0:04:39.04    \nframe=  246 fps=0.9 q=45.9 size=     768KiB time=00:00:04.06 bitrate=1547.2kbits/s speed=0.0145x elapsed=0:04:39.59    \nframe=  246 fps=0.9 q=45.9 size=     768KiB time=00:00:04.06 bitrate=1547.2kbits/s speed=0.0145x elapsed=0:04:40.16    \nframe=  246 fps=0.9 q=45.9 size=     768KiB time=00:00:04.06 bitrate=1547.2kbits/s speed=0.0145x elapsed=0:04:40.77    \nframe=  246 fps=0.9 q=45.9 size=     768KiB time=00:00:04.06 bitrate=1547.2kbits/s speed=0.0145x elapsed=0:04:41.34    \nframe=  246 fps=0.9 q=45.9 size=     768KiB time=00:00:04.06 bitrate=1547.2kbits/s speed=0.0144x elapsed=0:04:41.92    \nframe=  246 fps=0.9 q=45.9 size=     768KiB time=00:00:04.06 bitrate=1547.2kbits/s speed=0.0144x elapsed=0:04:42.48    \nframe=  246 fps=0.9 q=45.9 size=     768KiB time=00:00:04.06 bitrate=1547.2kbits/s speed=0.0144x elapsed=0:04:43.11    \nframe=  246 fps=0.9 q=45.9 size=     768KiB time=00:00:04.06 bitrate=1547.2kbits/s speed=0.0143x elapsed=0:04:43.73    \nframe=  246 fps=0.9 q=45.9 size=     768KiB time=00:00:04.06 bitrate=1547.2kbits/s speed=0.0143x elapsed=0:04:44.34    \nframe=  246 fps=0.9 q=45.9 size=     768KiB time=00:00:04.06 bitrate=1547.2kbits/s speed=0.0143x elapsed=0:04:44.90    \nframe=  246 fps=0.9 q=45.9 size=     768KiB time=00:00:04.06 bitrate=1547.2kbits/s speed=0.0142x elapsed=0:04:45.46    \nframe=  247 fps=0.9 q=47.3 size=     768KiB time=00:00:04.08 bitrate=1540.9kbits/s speed=0.0143x elapsed=0:04:46.00    \nframe=  247 fps=0.9 q=47.3 size=     768KiB time=00:00:04.08 bitrate=1540.9kbits/s speed=0.0143x elapsed=0:04:46.54    \nframe=  248 fps=0.9 q=41.3 size=     768KiB time=00:00:04.10 bitrate=1534.6kbits/s speed=0.0143x elapsed=0:04:47.06    \nframe=  248 fps=0.9 q=41.3 size=     768KiB time=00:00:04.10 bitrate=1534.6kbits/s speed=0.0143x elapsed=0:04:47.59    \nframe=  248 fps=0.9 q=41.3 size=     768KiB time=00:00:04.10 bitrate=1534.6kbits/s speed=0.0142x elapsed=0:04:48.14    \nframe=  248 fps=0.9 q=41.3 size=     768KiB time=00:00:04.10 bitrate=1534.6kbits/s speed=0.0142x elapsed=0:04:48.73    \nframe=  248 fps=0.9 q=41.3 size=     768KiB time=00:00:04.10 bitrate=1534.6kbits/s speed=0.0142x elapsed=0:04:49.26    \nframe=  248 fps=0.9 q=41.3 size=     768KiB time=00:00:04.10 bitrate=1534.6kbits/s speed=0.0141x elapsed=0:04:49.79    \nframe=  249 fps=0.9 q=45.2 size=     768KiB time=00:00:04.11 bitrate=1528.4kbits/s speed=0.0142x elapsed=0:04:50.33    \nframe=  250 fps=0.9 q=46.7 size=     768KiB time=00:00:04.13 bitrate=1522.2kbits/s speed=0.0142x elapsed=0:04:50.88    \nframe=  250 fps=0.9 q=46.7 size=     768KiB time=00:00:04.13 bitrate=1522.2kbits/s speed=0.0142x elapsed=0:04:51.43    \nframe=  250 fps=0.9 q=46.7 size=     768KiB time=00:00:04.13 bitrate=1522.2kbits/s speed=0.0142x elapsed=0:04:51.95    \nframe=  250 fps=0.9 q=46.7 size=     768KiB time=00:00:04.13 bitrate=1522.2kbits/s speed=0.0141x elapsed=0:04:52.50    \nframe=  251 fps=0.9 q=38.9 size=     768KiB time=00:00:04.15 bitrate=1516.1kbits/s speed=0.0142x elapsed=0:04:53.03    \nframe=  252 fps=0.9 q=39.0 size=     768KiB time=00:00:04.16 bitrate=1510.0kbits/s speed=0.0142x elapsed=0:04:53.60    \nframe=  252 fps=0.9 q=39.0 size=     768KiB time=00:00:04.16 bitrate=1510.0kbits/s speed=0.0142x elapsed=0:04:54.10    \nframe=  252 fps=0.9 q=39.0 size=     768KiB time=00:00:04.16 bitrate=1510.0kbits/s speed=0.0141x elapsed=0:04:54.66    \nframe=  252 fps=0.9 q=39.0 size=     768KiB time=00:00:04.16 bitrate=1510.0kbits/s speed=0.0141x elapsed=0:04:55.27    \nframe=  252 fps=0.9 q=39.0 size=     768KiB time=00:00:04.16 bitrate=1510.0kbits/s speed=0.0141x elapsed=0:04:55.83    \nframe=  253 fps=0.9 q=42.7 size=     768KiB time=00:00:04.18 bitrate=1504.0kbits/s speed=0.0141x elapsed=0:04:56.38    \nframe=  253 fps=0.9 q=42.7 size=     768KiB time=00:00:04.18 bitrate=1504.0kbits/s speed=0.0141x elapsed=0:04:56.94    \nframe=  254 fps=0.9 q=46.1 size=     768KiB time=00:00:04.20 bitrate=1498.0kbits/s speed=0.0141x elapsed=0:04:57.48    \nframe=  254 fps=0.9 q=46.1 size=     768KiB time=00:00:04.20 bitrate=1498.0kbits/s speed=0.0141x elapsed=0:04:58.01    \nframe=  254 fps=0.9 q=46.1 size=     768KiB time=00:00:04.20 bitrate=1498.0kbits/s speed=0.0141x elapsed=0:04:58.52    \nframe=  254 fps=0.8 q=46.1 size=     768KiB time=00:00:04.20 bitrate=1498.0kbits/s speed=0.014x elapsed=0:04:59.11    \nframe=  255 fps=0.9 q=46.1 size=     768KiB time=00:00:04.21 bitrate=1492.1kbits/s speed=0.0141x elapsed=0:04:59.71    \nframe=  255 fps=0.8 q=46.1 size=     768KiB time=00:00:04.21 bitrate=1492.1kbits/s speed=0.014x elapsed=0:05:00.23    \nframe=  255 fps=0.8 q=46.1 size=     768KiB time=00:00:04.21 bitrate=1492.1kbits/s speed=0.014x elapsed=0:05:00.81    \nframe=  255 fps=0.8 q=46.1 size=     768KiB time=00:00:04.21 bitrate=1492.1kbits/s speed=0.014x elapsed=0:05:01.36    \nframe=  256 fps=0.8 q=45.2 size=     768KiB time=00:00:04.23 bitrate=1486.3kbits/s speed=0.014x elapsed=0:05:01.94    \nframe=  256 fps=0.8 q=45.2 size=     768KiB time=00:00:04.23 bitrate=1486.3kbits/s speed=0.014x elapsed=0:05:02.47    \nframe=  256 fps=0.8 q=45.2 size=     768KiB time=00:00:04.23 bitrate=1486.3kbits/s speed=0.014x elapsed=0:05:03.02    \nframe=  257 fps=0.8 q=38.9 size=     768KiB time=00:00:04.25 bitrate=1480.4kbits/s speed=0.014x elapsed=0:05:03.56    \nframe=  257 fps=0.8 q=38.9 size=     768KiB time=00:00:04.25 bitrate=1480.4kbits/s speed=0.014x elapsed=0:05:04.15    \nframe=  257 fps=0.8 q=38.9 size=     768KiB time=00:00:04.25 bitrate=1480.4kbits/s speed=0.0139x elapsed=0:05:04.71    \nframe=  257 fps=0.8 q=38.9 size=     768KiB time=00:00:04.25 bitrate=1480.4kbits/s speed=0.0139x elapsed=0:05:05.23    \nframe=  257 fps=0.8 q=38.9 size=     768KiB time=00:00:04.25 bitrate=1480.4kbits/s speed=0.0139x elapsed=0:05:05.75    \nframe=  258 fps=0.8 q=42.9 size=     768KiB time=00:00:04.26 bitrate=1474.6kbits/s speed=0.0139x elapsed=0:05:06.26    \nframe=  259 fps=0.8 q=45.2 size=     768KiB time=00:00:04.28 bitrate=1468.9kbits/s speed=0.014x elapsed=0:05:06.79    \nframe=  259 fps=0.8 q=45.2 size=     768KiB time=00:00:04.28 bitrate=1468.9kbits/s speed=0.0139x elapsed=0:05:07.33    \nframe=  260 fps=0.8 q=44.9 size=     768KiB time=00:00:04.30 bitrate=1463.2kbits/s speed=0.014x elapsed=0:05:07.91    \nframe=  260 fps=0.8 q=44.9 size=     768KiB time=00:00:04.30 bitrate=1463.2kbits/s speed=0.0139x elapsed=0:05:08.46    \nframe=  260 fps=0.8 q=44.9 size=     768KiB time=00:00:04.30 bitrate=1463.2kbits/s speed=0.0139x elapsed=0:05:09.03    \nframe=  260 fps=0.8 q=44.9 size=     768KiB time=00:00:04.30 bitrate=1463.2kbits/s speed=0.0139x elapsed=0:05:09.71    \nframe=  261 fps=0.8 q=39.1 size=     768KiB time=00:00:04.31 bitrate=1457.6kbits/s speed=0.0139x elapsed=0:05:10.30    \nframe=  261 fps=0.8 q=39.1 size=     768KiB time=00:00:04.31 bitrate=1457.6kbits/s speed=0.0139x elapsed=0:05:10.86    \nframe=  261 fps=0.8 q=39.1 size=     768KiB time=00:00:04.31 bitrate=1457.6kbits/s speed=0.0139x elapsed=0:05:11.45    \nframe=  262 fps=0.8 q=42.3 size=     768KiB time=00:00:04.33 bitrate=1452.0kbits/s speed=0.0139x elapsed=0:05:12.05    \nframe=  262 fps=0.8 q=42.3 size=     768KiB time=00:00:04.33 bitrate=1452.0kbits/s speed=0.0139x elapsed=0:05:12.71    \nframe=  264 fps=0.8 q=44.3 size=     768KiB time=00:00:04.36 bitrate=1440.9kbits/s speed=0.0139x elapsed=0:05:13.27    \nframe=  264 fps=0.8 q=44.3 size=     768KiB time=00:00:04.36 bitrate=1440.9kbits/s speed=0.0139x elapsed=0:05:13.90    \nframe=  264 fps=0.8 q=44.3 size=     768KiB time=00:00:04.36 bitrate=1440.9kbits/s speed=0.0139x elapsed=0:05:14.51    \nframe=  265 fps=0.8 q=39.1 size=     768KiB time=00:00:04.38 bitrate=1435.4kbits/s speed=0.0139x elapsed=0:05:15.14    \nframe=  265 fps=0.8 q=39.1 size=     768KiB time=00:00:04.38 bitrate=1435.4kbits/s speed=0.0139x elapsed=0:05:15.73    \nframe=  266 fps=0.8 q=42.0 size=     768KiB time=00:00:04.40 bitrate=1430.0kbits/s speed=0.0139x elapsed=0:05:16.30    \nframe=  266 fps=0.8 q=42.0 size=     768KiB time=00:00:04.40 bitrate=1430.0kbits/s speed=0.0139x elapsed=0:05:16.85    \nframe=  267 fps=0.8 q=44.3 size=     768KiB time=00:00:04.41 bitrate=1424.6kbits/s speed=0.0139x elapsed=0:05:17.39    \nframe=  267 fps=0.8 q=44.3 size=     768KiB time=00:00:04.41 bitrate=1424.6kbits/s speed=0.0139x elapsed=0:05:17.91    \nframe=  267 fps=0.8 q=44.3 size=     768KiB time=00:00:04.41 bitrate=1424.6kbits/s speed=0.0139x elapsed=0:05:18.43    \nframe=  267 fps=0.8 q=44.3 size=     768KiB time=00:00:04.41 bitrate=1424.6kbits/s speed=0.0138x elapsed=0:05:18.97    \nframe=  269 fps=0.8 q=38.5 size=     768KiB time=00:00:04.45 bitrate=1413.9kbits/s speed=0.0139x elapsed=0:05:19.57    \nframe=  269 fps=0.8 q=38.5 size=     768KiB time=00:00:04.45 bitrate=1413.9kbits/s speed=0.0139x elapsed=0:05:20.19    \nframe=  269 fps=0.8 q=38.5 size=     768KiB time=00:00:04.45 bitrate=1413.9kbits/s speed=0.0139x elapsed=0:05:20.76    \nframe=  269 fps=0.8 q=38.5 size=     768KiB time=00:00:04.45 bitrate=1413.9kbits/s speed=0.0138x elapsed=0:05:21.42    \nframe=  269 fps=0.8 q=38.5 size=     768KiB time=00:00:04.45 bitrate=1413.9kbits/s speed=0.0138x elapsed=0:05:21.96    \nframe=  270 fps=0.8 q=42.1 size=     768KiB time=00:00:04.46 bitrate=1408.6kbits/s speed=0.0139x elapsed=0:05:22.48    \nframe=  271 fps=0.8 q=44.3 size=     768KiB time=00:00:04.48 bitrate=1403.4kbits/s speed=0.0139x elapsed=0:05:23.01    \nframe=  271 fps=0.8 q=44.3 size=     768KiB time=00:00:04.48 bitrate=1403.4kbits/s speed=0.0139x elapsed=0:05:23.53    \nframe=  272 fps=0.8 q=44.4 size=     768KiB time=00:00:04.50 bitrate=1398.2kbits/s speed=0.0139x elapsed=0:05:24.08    \nframe=  272 fps=0.8 q=44.4 size=     768KiB time=00:00:04.50 bitrate=1398.2kbits/s speed=0.0139x elapsed=0:05:24.62    \nframe=  273 fps=0.8 q=38.6 size=     768KiB time=00:00:04.51 bitrate=1393.0kbits/s speed=0.0139x elapsed=0:05:25.20    \nframe=  273 fps=0.8 q=38.6 size=     768KiB time=00:00:04.51 bitrate=1393.0kbits/s speed=0.0139x elapsed=0:05:25.76    \nframe=  273 fps=0.8 q=38.6 size=     768KiB time=00:00:04.51 bitrate=1393.0kbits/s speed=0.0138x elapsed=0:05:26.32    \nframe=  273 fps=0.8 q=38.6 size=     768KiB time=00:00:04.51 bitrate=1393.0kbits/s speed=0.0138x elapsed=0:05:26.91    \nframe=  273 fps=0.8 q=38.6 size=     768KiB time=00:00:04.51 bitrate=1393.0kbits/s speed=0.0138x elapsed=0:05:27.49    \nframe=  273 fps=0.8 q=38.6 size=     768KiB time=00:00:04.51 bitrate=1393.0kbits/s speed=0.0138x elapsed=0:05:28.11    \nframe=  273 fps=0.8 q=38.6 size=     768KiB time=00:00:04.51 bitrate=1393.0kbits/s speed=0.0137x elapsed=0:05:28.67    \nframe=  273 fps=0.8 q=38.6 size=     768KiB time=00:00:04.51 bitrate=1393.0kbits/s speed=0.0137x elapsed=0:05:29.23    \nframe=  274 fps=0.8 q=42.0 size=     768KiB time=00:00:04.53 bitrate=1387.9kbits/s speed=0.0137x elapsed=0:05:29.81    \nframe=  274 fps=0.8 q=42.0 size=     768KiB time=00:00:04.53 bitrate=1387.9kbits/s speed=0.0137x elapsed=0:05:30.33    \nframe=  276 fps=0.8 q=44.3 size=     768KiB time=00:00:04.56 bitrate=1377.8kbits/s speed=0.0138x elapsed=0:05:30.87    \nframe=  276 fps=0.8 q=44.3 size=     768KiB time=00:00:04.56 bitrate=1377.8kbits/s speed=0.0138x elapsed=0:05:31.41    \nframe=  276 fps=0.8 q=44.3 size=     768KiB time=00:00:04.56 bitrate=1377.8kbits/s speed=0.0138x elapsed=0:05:31.95    \nframe=  278 fps=0.8 q=41.8 size=     768KiB time=00:00:04.58 bitrate=1372.8kbits/s speed=0.0138x elapsed=0:05:32.47    \nframe=  278 fps=0.8 q=41.8 size=     768KiB time=00:00:04.60 bitrate=1367.8kbits/s speed=0.0138x elapsed=0:05:33.07    \nframe=  278 fps=0.8 q=41.8 size=     768KiB time=00:00:04.60 bitrate=1367.8kbits/s speed=0.0138x elapsed=0:05:33.69    \nframe=  278 fps=0.8 q=41.8 size=     768KiB time=00:00:04.60 bitrate=1367.8kbits/s speed=0.0138x elapsed=0:05:34.32    \nframe=  278 fps=0.8 q=41.8 size=     768KiB time=00:00:04.60 bitrate=1367.8kbits/s speed=0.0137x elapsed=0:05:34.85    \nframe=  278 fps=0.8 q=41.8 size=     768KiB time=00:00:04.60 bitrate=1367.8kbits/s speed=0.0137x elapsed=0:05:35.39    \nframe=  278 fps=0.8 q=41.8 size=     768KiB time=00:00:04.60 bitrate=1367.8kbits/s speed=0.0137x elapsed=0:05:35.95    \nframe=  278 fps=0.8 q=41.8 size=     768KiB time=00:00:04.60 bitrate=1367.8kbits/s speed=0.0137x elapsed=0:05:36.55    \nframe=  278 fps=0.8 q=41.8 size=     768KiB time=00:00:04.60 bitrate=1367.8kbits/s speed=0.0136x elapsed=0:05:37.08    \nframe=  280 fps=0.8 q=44.0 size=     768KiB time=00:00:04.63 bitrate=1357.9kbits/s speed=0.0137x elapsed=0:05:37.62    \nframe=  281 fps=0.8 q=39.4 size=     768KiB time=00:00:04.65 bitrate=1353.1kbits/s speed=0.0137x elapsed=0:05:38.20    \nframe=  281 fps=0.8 q=39.4 size=     768KiB time=00:00:04.65 bitrate=1353.1kbits/s speed=0.0137x elapsed=0:05:38.75    \nframe=  281 fps=0.8 q=39.4 size=     768KiB time=00:00:04.65 bitrate=1353.1kbits/s speed=0.0137x elapsed=0:05:39.29    \nframe=  282 fps=0.8 q=41.6 size=     768KiB time=00:00:04.66 bitrate=1348.2kbits/s speed=0.0137x elapsed=0:05:39.87    \nframe=  282 fps=0.8 q=41.6 size=     768KiB time=00:00:04.66 bitrate=1348.2kbits/s speed=0.0137x elapsed=0:05:40.43    \nframe=  284 fps=0.8 q=44.2 size=     768KiB time=00:00:04.70 bitrate=1338.7kbits/s speed=0.0138x elapsed=0:05:41.00    \nframe=  286 fps=0.8 q=42.2 size=     768KiB time=00:00:04.73 bitrate=1329.3kbits/s speed=0.0139x elapsed=0:05:41.54    \nframe=  287 fps=0.8 q=44.5 size=     768KiB time=00:00:04.75 bitrate=1324.6kbits/s speed=0.0139x elapsed=0:05:42.09    \nframe=  287 fps=0.8 q=44.5 size=     768KiB time=00:00:04.75 bitrate=1324.6kbits/s speed=0.0139x elapsed=0:05:42.66    \nframe=  288 fps=0.8 q=44.4 size=     768KiB time=00:00:04.76 bitrate=1320.0kbits/s speed=0.0139x elapsed=0:05:43.30    \nframe=  288 fps=0.8 q=44.4 size=     768KiB time=00:00:04.76 bitrate=1320.0kbits/s speed=0.0139x elapsed=0:05:43.92    \nframe=  288 fps=0.8 q=44.4 size=     768KiB time=00:00:04.76 bitrate=1320.0kbits/s speed=0.0138x elapsed=0:05:44.46    \nframe=  288 fps=0.8 q=44.4 size=     768KiB time=00:00:04.76 bitrate=1320.0kbits/s speed=0.0138x elapsed=0:05:45.07    \nframe=  288 fps=0.8 q=44.4 size=     768KiB time=00:00:04.76 bitrate=1320.0kbits/s speed=0.0138x elapsed=0:05:45.66    \nframe=  288 fps=0.8 q=44.4 size=     768KiB time=00:00:04.76 bitrate=1320.0kbits/s speed=0.0138x elapsed=0:05:46.22    \nframe=  289 fps=0.8 q=39.5 size=     768KiB time=00:00:04.78 bitrate=1315.4kbits/s speed=0.0138x elapsed=0:05:46.83    \nframe=  289 fps=0.8 q=39.5 size=     768KiB time=00:00:04.78 bitrate=1315.4kbits/s speed=0.0138x elapsed=0:05:47.41    \nframe=  290 fps=0.8 q=42.1 size=     768KiB time=00:00:04.80 bitrate=1310.8kbits/s speed=0.0138x elapsed=0:05:48.08    \nframe=  290 fps=0.8 q=42.1 size=     768KiB time=00:00:04.80 bitrate=1310.8kbits/s speed=0.0138x elapsed=0:05:48.65    \nframe=  292 fps=0.8 q=44.5 size=     768KiB time=00:00:04.83 bitrate=1301.8kbits/s speed=0.0138x elapsed=0:05:49.23    \nframe=  294 fps=0.8 q=42.6 size=     768KiB time=00:00:04.86 bitrate=1292.8kbits/s speed=0.0139x elapsed=0:05:49.81    \nframe=  294 fps=0.8 q=42.6 size=     768KiB time=00:00:04.86 bitrate=1292.8kbits/s speed=0.0139x elapsed=0:05:50.35    \nframe=  295 fps=0.8 q=44.6 size=     768KiB time=00:00:04.88 bitrate=1288.4kbits/s speed=0.0139x elapsed=0:05:50.88    \nframe=  296 fps=0.8 q=44.5 size=     768KiB time=00:00:04.90 bitrate=1284.0kbits/s speed=0.0139x elapsed=0:05:51.40    \nframe=  296 fps=0.8 q=44.5 size=     768KiB time=00:00:04.90 bitrate=1284.0kbits/s speed=0.0139x elapsed=0:05:51.92    \nframe=  296 fps=0.8 q=44.5 size=     768KiB time=00:00:04.90 bitrate=1284.0kbits/s speed=0.0139x elapsed=0:05:52.43    \nframe=  297 fps=0.8 q=41.2 size=     768KiB time=00:00:04.91 bitrate=1279.7kbits/s speed=0.0139x elapsed=0:05:52.95    \nframe=  297 fps=0.8 q=41.2 size=     768KiB time=00:00:04.91 bitrate=1279.7kbits/s speed=0.0139x elapsed=0:05:53.49    \nframe=  298 fps=0.8 q=41.5 size=     768KiB time=00:00:04.93 bitrate=1275.4kbits/s speed=0.0139x elapsed=0:05:54.01    \n[mp4 @ 000001dcf3ef1380] Starting second pass: moving the moov atom to the beginning of the file\n[out#0/mp4 @ 000001dcf3eeac00] video:932KiB audio:0KiB subtitle:0KiB other streams:0KiB global headers:2KiB muxing overhead: 0.750899%\nframe=  300 fps=0.8 q=44.5 Lsize=     939KiB time=00:00:04.96 bitrate=1549.6kbits/s speed=0.014x elapsed=0:05:54.49    \nx265 [info]: frame I:      2, Avg QP:40.29  kb/s: 4722.24 \nx265 [info]: frame P:     76, Avg QP:39.13  kb/s: 3037.26 \nx265 [info]: frame B:    222, Avg QP:43.46  kb/s: 979.63  \nx265 [info]: Weighted P-Frames: Y:0.0% UV:0.0%\n\nencoded 300 frames in 353.87s (0.85 fps), 1525.85 kb/s, Avg QP:42.34\n",
  "seconds": 354.83935475349426,
  "probe_out": {}
}